<svg class="wb" viewBox="0 0 720 430" xmlns="http://www.w3.org/2000/svg" role="img" aria-label="Does giving learners a personalised worked example improve their writing?"><defs>
<filter id="r9" x="-10%" y="-10%" width="120%" height="120%">
  <feTurbulence type="fractalNoise" baseFrequency="0.024" numOctaves="3" seed="9" result="n"/>
  <feDisplacementMap in="SourceGraphic" in2="n" scale="2.2" xChannelSelector="R" yChannelSelector="G"/>
</filter>
<filter id="soft9" x="-20%" y="-20%" width="140%" height="140%">
  <feGaussianBlur stdDeviation="5"/>
</filter>
<marker id="ah9_667185" viewBox="0 0 12 12" refX="9" refY="6" markerWidth="6.5" markerHeight="6.5" orient="auto-start-reverse"><path d="M1.5 1.5 L10 6 L1.5 10.5" fill="none" stroke="#667185" stroke-width="2" stroke-linecap="round" stroke-linejoin="round"/></marker><marker id="ah9_232733" viewBox="0 0 12 12" refX="9" refY="6" markerWidth="6.5" markerHeight="6.5" orient="auto-start-reverse"><path d="M1.5 1.5 L10 6 L1.5 10.5" fill="none" stroke="#232733" stroke-width="2" stroke-linecap="round" stroke-linejoin="round"/></marker><marker id="ah9_2563b8" viewBox="0 0 12 12" refX="9" refY="6" markerWidth="6.5" markerHeight="6.5" orient="auto-start-reverse"><path d="M1.5 1.5 L10 6 L1.5 10.5" fill="none" stroke="#2563b8" stroke-width="2" stroke-linecap="round" stroke-linejoin="round"/></marker><marker id="ah9_6b4fbb" viewBox="0 0 12 12" refX="9" refY="6" markerWidth="6.5" markerHeight="6.5" orient="auto-start-reverse"><path d="M1.5 1.5 L10 6 L1.5 10.5" fill="none" stroke="#6b4fbb" stroke-width="2" stroke-linecap="round" stroke-linejoin="round"/></marker><marker id="ah9_1b8056" viewBox="0 0 12 12" refX="9" refY="6" markerWidth="6.5" markerHeight="6.5" orient="auto-start-reverse"><path d="M1.5 1.5 L10 6 L1.5 10.5" fill="none" stroke="#1b8056" stroke-width="2" stroke-linecap="round" stroke-linejoin="round"/></marker><marker id="ah9_0f7d73" viewBox="0 0 12 12" refX="9" refY="6" markerWidth="6.5" markerHeight="6.5" orient="auto-start-reverse"><path d="M1.5 1.5 L10 6 L1.5 10.5" fill="none" stroke="#0f7d73" stroke-width="2" stroke-linecap="round" stroke-linejoin="round"/></marker><marker id="ah9_c23b52" viewBox="0 0 12 12" refX="9" refY="6" markerWidth="6.5" markerHeight="6.5" orient="auto-start-reverse"><path d="M1.5 1.5 L10 6 L1.5 10.5" fill="none" stroke="#c23b52" stroke-width="2" stroke-linecap="round" stroke-linejoin="round"/></marker><marker id="ah9_946915" viewBox="0 0 12 12" refX="9" refY="6" markerWidth="6.5" markerHeight="6.5" orient="auto-start-reverse"><path d="M1.5 1.5 L10 6 L1.5 10.5" fill="none" stroke="#946915" stroke-width="2" stroke-linecap="round" stroke-linejoin="round"/></marker>
</defs><rect width="720" height="430" fill="#fdfdfb"/><circle cx="666" cy="46" r="86" fill="#6b4fbb" fill-opacity="0.05"/><circle cx="46" cy="390" r="70" fill="#6b4fbb" fill-opacity="0.04"/><g filter="url(#r9)"><text x="360" y="46" text-anchor="middle" font-family="'Caveat','Bradley Hand',cursive" font-size="23" font-weight="600" fill="#232733">an example pulled from your own draft</text><clipPath id="c9_56_96"><rect x="56" y="96" width="172" height="122" rx="10"/></clipPath><g clip-path="url(#c9_56_96)" stroke="#667185" stroke-width="1.3" stroke-opacity="0.18" stroke-linecap="round"><path d="M-40.3 217.6 L55.9 95.9" fill="none"/><path d="M-31.0 218.6 L63.5 96.4" fill="none"/><path d="M-22.7 216.9 L71.3 95.2" fill="none"/><path d="M-12.8 219.2 L79.5 95.0" fill="none"/><path d="M-6.9 217.1 L89.7 94.9" fill="none"/><path d="M1.5 217.1 L97.9 96.9" fill="none"/><path d="M11.3 219.0 L105.7 95.7" fill="none"/><path d="M19.4 217.7 L112.2 97.1" fill="none"/><path d="M26.3 218.2 L121.4 97.0" fill="none"/><path d="M32.7 219.3 L130.0 94.6" fill="none"/><path d="M41.7 218.6 L139.9 97.3" fill="none"/><path d="M52.1 217.4 L146.4 97.6" fill="none"/><path d="M59.9 218.8 L153.4 96.0" fill="none"/><path d="M69.2 218.9 L163.2 97.1" fill="none"/><path d="M75.4 217.3 L172.1 96.5" fill="none"/><path d="M86.1 217.4 L181.3 94.6" fill="none"/><path d="M93.2 219.2 L188.6 96.0" fill="none"/><path d="M99.3 216.8 L196.6 94.6" fill="none"/><path d="M108.0 217.6 L206.3 96.8" fill="none"/><path d="M116.4 217.7 L214.2 95.6" fill="none"/><path d="M125.1 219.4 L221.2 94.7" fill="none"/><path d="M134.3 219.4 L227.8 97.5" fill="none"/><path d="M143.4 218.6 L238.4 96.2" fill="none"/><path d="M148.7 217.5 L244.0 97.5" fill="none"/><path d="M158.4 217.7 L253.2 94.6" fill="none"/><path d="M165.6 218.4 L262.8 95.4" fill="none"/><path d="M174.5 217.2 L267.7 97.3" fill="none"/><path d="M182.3 219.4 L277.4 97.4" fill="none"/><path d="M189.6 219.4 L284.4 97.4" fill="none"/><path d="M193.7 219.5 L290.1 97.6" fill="none"/><path d="M204.5 219.0 L298.2 95.1" fill="none"/><path d="M212.7 217.3 L307.3 95.1" fill="none"/><path d="M222.7 218.0 L317.0 95.7" fill="none"/><path d="M229.7 219.1 L324.2 96.8" fill="none"/><path d="M236.5 216.7 L330.8 95.3" fill="none"/><path d="M243.9 218.3 L339.9 96.6" fill="none"/><path d="M254.6 218.9 L349.1 95.3" fill="none"/><path d="M259.5 217.4 L355.5 94.9" fill="none"/><path d="M265.9 219.1 L363.2 95.6" fill="none"/><path d="M275.7 218.1 L369.9 97.4" fill="none"/><path d="M282.7 217.3 L380.0 94.5" fill="none"/><path d="M290.8 217.5 L385.8 96.6" fill="none"/><path d="M302.3 217.0 L396.4 96.3" fill="none"/><path d="M311.3 217.7 L405.1 96.9" fill="none"/><path d="M318.7 217.5 L412.6 96.2" fill="none"/></g><rect x="56" y="96" width="172" height="122" rx="10" fill="none" stroke="#667185" stroke-width="2.2"/><path d="M69 126 h146" fill="none" stroke="#667185" stroke-width="2.0" stroke-linecap="round" stroke-linejoin="round" stroke-opacity="0.75"/><path d="M69 157 h146" fill="none" stroke="#667185" stroke-width="2.0" stroke-linecap="round" stroke-linejoin="round" stroke-opacity="0.75"/><path d="M69 188 h132" fill="none" stroke="#667185" stroke-width="2.0" stroke-linecap="round" stroke-linejoin="round" stroke-opacity="0.75"/><text x="142" y="244" text-anchor="middle" font-family="'Caveat','Bradley Hand',cursive" font-size="20" font-weight="600" fill="#667185">your draft</text><path d="M238 156 L288 156" fill="none" stroke="#232733" stroke-width="2.6" stroke-linecap="round" stroke-linejoin="round" marker-end="url(#ah9_232733)"/><clipPath id="c9_298_82"><rect x="298" y="82" width="128" height="148" rx="10"/></clipPath><g clip-path="url(#c9_298_82)" stroke="#6b4fbb" stroke-width="1.3" stroke-opacity="0.22" stroke-linecap="round"><path d="M181.4 229.6 L297.9 81.9" fill="none"/><path d="M190.7 230.6 L305.5 82.4" fill="none"/><path d="M199.0 228.9 L313.3 81.2" fill="none"/><path d="M208.9 231.2 L321.5 81.0" fill="none"/><path d="M214.8 229.1 L331.7 80.9" fill="none"/><path d="M223.2 229.1 L339.9 82.9" fill="none"/><path d="M233.0 231.0 L347.7 81.7" fill="none"/><path d="M241.1 229.7 L354.2 83.1" fill="none"/><path d="M248.0 230.2 L363.4 83.0" fill="none"/><path d="M254.4 231.3 L372.0 80.6" fill="none"/><path d="M263.3 230.6 L381.9 83.3" fill="none"/><path d="M273.8 229.4 L388.4 83.6" fill="none"/><path d="M281.6 230.8 L395.4 82.0" fill="none"/><path d="M290.9 230.9 L405.2 83.1" fill="none"/><path d="M297.0 229.3 L414.1 82.5" fill="none"/><path d="M307.8 229.4 L423.3 80.6" fill="none"/><path d="M314.9 231.2 L430.6 82.0" fill="none"/><path d="M320.9 228.8 L438.6 80.6" fill="none"/><path d="M329.7 229.6 L448.3 82.8" fill="none"/><path d="M338.1 229.7 L456.2 81.6" fill="none"/><path d="M346.8 231.4 L463.2 80.7" fill="none"/><path d="M356.0 231.4 L469.8 83.5" fill="none"/><path d="M365.1 230.6 L480.4 82.2" fill="none"/><path d="M370.4 229.5 L486.0 83.5" fill="none"/><path d="M380.1 229.7 L495.2 80.6" fill="none"/><path d="M387.3 230.4 L504.8 81.4" fill="none"/><path d="M396.2 229.2 L509.7 83.3" fill="none"/><path d="M404.0 231.4 L519.4 83.4" fill="none"/><path d="M411.3 231.4 L526.4 83.4" fill="none"/><path d="M415.4 231.5 L532.1 83.6" fill="none"/><path d="M426.2 231.0 L540.2 81.1" fill="none"/><path d="M434.4 229.3 L549.3 81.1" fill="none"/><path d="M444.4 230.0 L559.0 81.7" fill="none"/><path d="M451.3 231.1 L566.2 82.8" fill="none"/><path d="M458.2 228.7 L572.8 81.3" fill="none"/><path d="M465.6 230.3 L581.9 82.6" fill="none"/><path d="M476.3 230.9 L591.1 81.3" fill="none"/><path d="M481.2 229.4 L597.5 80.9" fill="none"/><path d="M487.6 231.1 L605.2 81.6" fill="none"/><path d="M497.4 230.1 L611.9 83.4" fill="none"/><path d="M504.4 229.3 L622.0 80.5" fill="none"/><path d="M512.5 229.5 L627.8 82.6" fill="none"/><path d="M524.0 229.0 L638.4 82.3" fill="none"/><path d="M533.0 229.7 L647.1 82.9" fill="none"/><path d="M540.4 229.5 L654.6 82.2" fill="none"/></g><rect x="298" y="82" width="128" height="148" rx="10" fill="none" stroke="#6b4fbb" stroke-width="2.8"/><text x="362" y="128" text-anchor="middle" font-family="'Caveat','Bradley Hand',cursive" font-size="24" font-weight="600" fill="#6b4fbb">180,000</text><text x="362" y="156" text-anchor="middle" font-family="'Caveat','Bradley Hand',cursive" font-size="21" font-weight="600" fill="#6b4fbb">recipes</text><text x="362" y="200" text-anchor="middle" font-family="'Caveat','Bradley Hand',cursive" font-size="18" font-weight="600" fill="#667185">retrieve</text><path d="M436 156 L486 156" fill="none" stroke="#232733" stroke-width="2.6" stroke-linecap="round" stroke-linejoin="round" marker-end="url(#ah9_232733)"/><clipPath id="c11_496_96"><rect x="496" y="96" width="172" height="122" rx="10"/></clipPath><g clip-path="url(#c11_496_96)" stroke="#1b8056" stroke-width="1.3" stroke-opacity="0.18" stroke-linecap="round"><path d="M399.2 217.2 L497.2 95.7" fill="none"/><path d="M411.3 218.9 L506.0 95.3" fill="none"/><path d="M419.2 218.6 L513.2 97.2" fill="none"/><path d="M424.8 218.6 L519.9 97.6" fill="none"/><path d="M433.4 219.3 L528.5 94.8" fill="none"/><path d="M443.3 217.9 L535.9 96.3" fill="none"/><path d="M450.2 216.6 L546.0 95.7" fill="none"/><path d="M459.9 218.2 L553.1 97.6" fill="none"/><path d="M464.9 218.3 L561.1 96.6" fill="none"/><path d="M475.8 217.2 L568.2 97.1" fill="none"/><path d="M481.1 219.3 L578.6 95.8" fill="none"/><path d="M492.0 217.6 L586.0 94.6" fill="none"/><path d="M500.5 217.5 L594.0 97.5" fill="none"/><path d="M507.5 218.4 L604.7 96.2" fill="none"/><path d="M515.0 218.3 L611.3 95.7" fill="none"/><path d="M525.0 217.7 L620.5 95.5" fill="none"/><path d="M534.3 218.1 L629.4 94.7" fill="none"/><path d="M539.5 219.5 L635.2 94.7" fill="none"/><path d="M549.3 217.5 L644.2 96.1" fill="none"/><path d="M556.0 217.9 L651.7 96.7" fill="none"/><path d="M565.5 217.2 L658.1 95.9" fill="none"/><path d="M574.7 219.4 L668.0 97.2" fill="none"/><path d="M582.2 216.9 L676.7 95.2" fill="none"/><path d="M590.9 217.7 L685.3 95.3" fill="none"/><path d="M596.2 217.9 L690.7 95.0" fill="none"/><path d="M602.6 219.1 L698.8 97.0" fill="none"/><path d="M610.9 217.1 L708.6 96.0" fill="none"/><path d="M620.5 218.2 L716.0 97.4" fill="none"/><path d="M627.9 217.6 L725.6 96.4" fill="none"/><path d="M638.1 217.5 L731.2 94.8" fill="none"/><path d="M646.3 218.8 L740.1 94.5" fill="none"/><path d="M652.0 216.6 L746.9 95.0" fill="none"/><path d="M660.5 217.3 L756.2 95.9" fill="none"/><path d="M668.3 216.9 L763.7 96.0" fill="none"/><path d="M673.2 216.7 L769.0 96.7" fill="none"/><path d="M682.1 217.3 L777.3 95.9" fill="none"/><path d="M689.7 218.5 L785.2 97.0" fill="none"/><path d="M696.3 218.8 L790.2 95.8" fill="none"/><path d="M704.5 216.7 L800.4 97.2" fill="none"/><path d="M711.6 218.8 L807.3 96.1" fill="none"/><path d="M717.6 218.4 L815.4 94.4" fill="none"/><path d="M728.8 217.4 L822.6 95.9" fill="none"/><path d="M735.4 219.1 L830.7 94.6" fill="none"/><path d="M741.6 219.0 L836.0 95.8" fill="none"/><path d="M751.4 219.2 L846.4 94.7" fill="none"/><path d="M760.4 217.0 L852.9 96.1" fill="none"/></g><rect x="496" y="96" width="172" height="122" rx="10" fill="none" stroke="#1b8056" stroke-width="2.2"/><path d="M509 126 h146" fill="none" stroke="#1b8056" stroke-width="2.0" stroke-linecap="round" stroke-linejoin="round" stroke-opacity="0.75"/><path d="M509 157 h146" fill="none" stroke="#1b8056" stroke-width="2.0" stroke-linecap="round" stroke-linejoin="round" stroke-opacity="0.75"/><path d="M509 188 h132" fill="none" stroke="#1b8056" stroke-width="2.0" stroke-linecap="round" stroke-linejoin="round" stroke-opacity="0.75"/><text x="582" y="244" text-anchor="middle" font-family="'Caveat','Bradley Hand',cursive" font-size="20" font-weight="600" fill="#1b8056">your next draft</text><rect x="150" y="288" width="420" height="46" rx="14" fill="#1b8056" fill-opacity="0.09"/><text x="360" y="318" text-anchor="middle" font-family="'Caveat','Bradley Hand',cursive" font-size="22" font-weight="600" fill="#1b8056">better writing, better experience</text><text x="360" y="384" text-anchor="middle" font-family="'Caveat','Bradley Hand',cursive" font-size="19" font-weight="600" fill="#667185">the example is chosen for you, not for everyone</text></g></svg>