<svg class="wb" viewBox="0 0 720 430" xmlns="http://www.w3.org/2000/svg" role="img" aria-label="Across 183 chef apprentices and more than 121,000 learning-journal entries, the method tracked how learning patterns changed over time and produced interpretable profiles."><rect width="720" height="430" fill="#ffffff"/><text x="56" y="26" text-anchor="start" font-family="Inter,-apple-system,'Helvetica Neue',system-ui,sans-serif" font-size="11" font-weight="700" fill="#535c6d" letter-spacing="1.6">183 CHEF APPRENTICES · 121,000 JOURNAL ENTRIES</text><circle cx="126" cy="158" r="40" fill="#225aa8" fill-opacity="0.14"/><circle cx="126" cy="158" r="40" fill="none" stroke="#225aa8" stroke-width="1.6"/><circle cx="360" cy="128" r="30" fill="#225aa8" fill-opacity="0.14"/><circle cx="360" cy="128" r="30" fill="none" stroke="#225aa8" stroke-width="1.6"/><circle cx="600" cy="176" r="48" fill="#225aa8" fill-opacity="0.14"/><circle cx="600" cy="176" r="48" fill="none" stroke="#225aa8" stroke-width="1.6"/><circle cx="176" cy="212" r="21" fill="#0c675e" fill-opacity="0.14"/><circle cx="176" cy="212" r="21" fill="none" stroke="#0c675e" stroke-width="1.6"/><circle cx="398" cy="204" r="34" fill="#0c675e" fill-opacity="0.14"/><circle cx="398" cy="204" r="34" fill="none" stroke="#0c675e" stroke-width="1.6"/><circle cx="540" cy="100" r="25" fill="#0c675e" fill-opacity="0.14"/><circle cx="540" cy="100" r="25" fill="none" stroke="#0c675e" stroke-width="1.6"/><path d="M108.7 170.1 a13.3 13.3 0 0 1 26.6 0" fill="#ffffff" stroke="#225aa8" stroke-width="1.4" stroke-linecap="butt" stroke-linejoin="round"/><circle cx="122" cy="150" r="9.120000000000001" fill="#ffffff" stroke="#225aa8" stroke-width="1.4"/><circle cx="119.15" cy="148.86" r="0.76" fill="#225aa8"/><circle cx="124.85" cy="148.86" r="0.76" fill="#225aa8"/><path d="M119.7 153.0 q2.3 2.1 4.6 0" fill="none" stroke="#225aa8" stroke-width="0.6080000000000001" stroke-linecap="round" stroke-linejoin="round"/><path d="M136.7 176.1 a13.3 13.3 0 0 1 26.6 0" fill="#ffffff" stroke="#225aa8" stroke-width="1.4" stroke-linecap="butt" stroke-linejoin="round"/><circle cx="150" cy="156" r="9.120000000000001" fill="#ffffff" stroke="#225aa8" stroke-width="1.4"/><circle cx="147.15" cy="154.86" r="0.76" fill="#225aa8"/><circle cx="152.85" cy="154.86" r="0.76" fill="#225aa8"/><path d="M148.1 159.8 h3.8" fill="none" stroke="#225aa8" stroke-width="0.6080000000000001" stroke-linecap="round" stroke-linejoin="round"/><path d="M172 140 Q249 110 326 120" fill="none" stroke="#535c6d" stroke-width="1.3" stroke-linecap="round" stroke-linejoin="round" stroke-dasharray="4 5"/><path d="M326 120 l-7.4 3.1" fill="none" stroke="#535c6d" stroke-width="1.3" stroke-linecap="round" stroke-linejoin="round"/><path d="M326 120 l-6.4 -4.8" fill="none" stroke="#535c6d" stroke-width="1.3" stroke-linecap="round" stroke-linejoin="round"/><path d="M398 142 Q474 110 550 118" fill="none" stroke="#535c6d" stroke-width="1.3" stroke-linecap="round" stroke-linejoin="round" stroke-dasharray="4 5"/><path d="M550 118 l-7.3 3.2" fill="none" stroke="#535c6d" stroke-width="1.3" stroke-linecap="round" stroke-linejoin="round"/><path d="M550 118 l-6.5 -4.7" fill="none" stroke="#535c6d" stroke-width="1.3" stroke-linecap="round" stroke-linejoin="round"/><path d="M56 266 H664" fill="none" stroke="#1a1d24" stroke-width="1.2" stroke-linecap="butt" stroke-linejoin="round"/><path d="M112 258 V266" fill="none" stroke="#1a1d24" stroke-width="1.2" stroke-linecap="butt" stroke-linejoin="round"/><text x="112" y="288" text-anchor="middle" font-family="Inter,-apple-system,'Helvetica Neue',system-ui,sans-serif" font-size="11" font-weight="700" fill="#535c6d" letter-spacing="1.6">WEEK 1</text><path d="M360 258 V266" fill="none" stroke="#1a1d24" stroke-width="1.2" stroke-linecap="butt" stroke-linejoin="round"/><text x="360" y="288" text-anchor="middle" font-family="Inter,-apple-system,'Helvetica Neue',system-ui,sans-serif" font-size="11" font-weight="700" fill="#535c6d" letter-spacing="1.6">WEEK 8</text><path d="M608 258 V266" fill="none" stroke="#1a1d24" stroke-width="1.2" stroke-linecap="butt" stroke-linejoin="round"/><text x="608" y="288" text-anchor="middle" font-family="Inter,-apple-system,'Helvetica Neue',system-ui,sans-serif" font-size="11" font-weight="700" fill="#535c6d" letter-spacing="1.6">WEEK 16</text><path d="M56 342 H664" fill="none" stroke="#e3e6ec" stroke-width="1" stroke-linecap="butt" stroke-linejoin="round"/><text x="360.0" y="375" text-anchor="middle" font-family="Fraunces,Georgia,'Times New Roman',serif" font-size="23" font-weight="500" fill="#1a1d24">The profile you start in</text><text x="360.0" y="404" text-anchor="middle" font-family="Fraunces,Georgia,'Times New Roman',serif" font-size="23" font-weight="600" fill="#6349ae">is not the one you stay in.</text></svg>