<svg class="wb" viewBox="0 0 720 430" xmlns="http://www.w3.org/2000/svg" role="img" aria-label="Do self-reports and trace data agree about self-regulated learning?"><defs>
<filter id="r11" x="-10%" y="-10%" width="120%" height="120%">
  <feTurbulence type="fractalNoise" baseFrequency="0.024" numOctaves="3" seed="11" result="n"/>
  <feDisplacementMap in="SourceGraphic" in2="n" scale="2.2" xChannelSelector="R" yChannelSelector="G"/>
</filter>
<filter id="soft11" x="-20%" y="-20%" width="140%" height="140%">
  <feGaussianBlur stdDeviation="5"/>
</filter>
<marker id="ah11_667185" viewBox="0 0 12 12" refX="9" refY="6" markerWidth="6.5" markerHeight="6.5" orient="auto-start-reverse"><path d="M1.5 1.5 L10 6 L1.5 10.5" fill="none" stroke="#667185" stroke-width="2" stroke-linecap="round" stroke-linejoin="round"/></marker><marker id="ah11_232733" viewBox="0 0 12 12" refX="9" refY="6" markerWidth="6.5" markerHeight="6.5" orient="auto-start-reverse"><path d="M1.5 1.5 L10 6 L1.5 10.5" fill="none" stroke="#232733" stroke-width="2" stroke-linecap="round" stroke-linejoin="round"/></marker><marker id="ah11_2563b8" viewBox="0 0 12 12" refX="9" refY="6" markerWidth="6.5" markerHeight="6.5" orient="auto-start-reverse"><path d="M1.5 1.5 L10 6 L1.5 10.5" fill="none" stroke="#2563b8" stroke-width="2" stroke-linecap="round" stroke-linejoin="round"/></marker><marker id="ah11_6b4fbb" viewBox="0 0 12 12" refX="9" refY="6" markerWidth="6.5" markerHeight="6.5" orient="auto-start-reverse"><path d="M1.5 1.5 L10 6 L1.5 10.5" fill="none" stroke="#6b4fbb" stroke-width="2" stroke-linecap="round" stroke-linejoin="round"/></marker><marker id="ah11_1b8056" viewBox="0 0 12 12" refX="9" refY="6" markerWidth="6.5" markerHeight="6.5" orient="auto-start-reverse"><path d="M1.5 1.5 L10 6 L1.5 10.5" fill="none" stroke="#1b8056" stroke-width="2" stroke-linecap="round" stroke-linejoin="round"/></marker><marker id="ah11_0f7d73" viewBox="0 0 12 12" refX="9" refY="6" markerWidth="6.5" markerHeight="6.5" orient="auto-start-reverse"><path d="M1.5 1.5 L10 6 L1.5 10.5" fill="none" stroke="#0f7d73" stroke-width="2" stroke-linecap="round" stroke-linejoin="round"/></marker><marker id="ah11_c23b52" viewBox="0 0 12 12" refX="9" refY="6" markerWidth="6.5" markerHeight="6.5" orient="auto-start-reverse"><path d="M1.5 1.5 L10 6 L1.5 10.5" fill="none" stroke="#c23b52" stroke-width="2" stroke-linecap="round" stroke-linejoin="round"/></marker><marker id="ah11_946915" viewBox="0 0 12 12" refX="9" refY="6" markerWidth="6.5" markerHeight="6.5" orient="auto-start-reverse"><path d="M1.5 1.5 L10 6 L1.5 10.5" fill="none" stroke="#946915" stroke-width="2" stroke-linecap="round" stroke-linejoin="round"/></marker>
</defs><rect width="720" height="430" fill="#fdfdfb"/><circle cx="666" cy="46" r="86" fill="#c23b52" fill-opacity="0.05"/><circle cx="46" cy="390" r="70" fill="#c23b52" fill-opacity="0.04"/><g filter="url(#r11)"><text x="186" y="48" text-anchor="middle" font-family="'Caveat','Bradley Hand',cursive" font-size="22" font-weight="600" fill="#2563b8">what students say</text><text x="534" y="48" text-anchor="middle" font-family="'Caveat','Bradley Hand',cursive" font-size="22" font-weight="600" fill="#0f7d73">what the traces show</text><clipPath id="c11_62_72"><rect x="62" y="72" width="248" height="116" rx="14"/></clipPath><g clip-path="url(#c11_62_72)" stroke="#2563b8" stroke-width="1.3" stroke-opacity="0.18" stroke-linecap="round"><path d="M-30.1 187.2 L63.2 71.7" fill="none"/><path d="M-18.0 188.9 L72.0 71.3" fill="none"/><path d="M-10.1 188.6 L79.2 73.2" fill="none"/><path d="M-4.5 188.6 L85.9 73.6" fill="none"/><path d="M4.1 189.3 L94.5 70.8" fill="none"/><path d="M14.0 187.9 L101.9 72.3" fill="none"/><path d="M20.8 186.6 L112.0 71.7" fill="none"/><path d="M30.6 188.2 L119.1 73.6" fill="none"/><path d="M35.6 188.3 L127.1 72.6" fill="none"/><path d="M46.5 187.2 L134.2 73.1" fill="none"/><path d="M51.8 189.3 L144.6 71.8" fill="none"/><path d="M62.7 187.6 L152.0 70.6" fill="none"/><path d="M71.2 187.5 L160.0 73.5" fill="none"/><path d="M78.2 188.4 L170.7 72.2" fill="none"/><path d="M85.7 188.3 L177.3 71.7" fill="none"/><path d="M95.7 187.7 L186.5 71.5" fill="none"/><path d="M105.0 188.1 L195.4 70.7" fill="none"/><path d="M110.1 189.5 L201.2 70.7" fill="none"/><path d="M120.0 187.5 L210.2 72.1" fill="none"/><path d="M126.7 187.9 L217.7 72.7" fill="none"/><path d="M136.2 187.2 L224.1 71.9" fill="none"/><path d="M145.4 189.4 L234.0 73.2" fill="none"/><path d="M152.9 186.9 L242.7 71.2" fill="none"/><path d="M161.5 187.7 L251.3 71.3" fill="none"/><path d="M166.9 187.9 L256.7 71.0" fill="none"/><path d="M173.3 189.1 L264.8 73.0" fill="none"/><path d="M181.5 187.1 L274.6 72.0" fill="none"/><path d="M191.2 188.2 L282.0 73.4" fill="none"/><path d="M198.6 187.6 L291.6 72.4" fill="none"/><path d="M208.8 187.5 L297.2 70.8" fill="none"/><path d="M217.0 188.8 L306.1 70.5" fill="none"/><path d="M222.7 186.6 L312.9 71.0" fill="none"/><path d="M231.2 187.3 L322.2 71.9" fill="none"/><path d="M239.0 186.9 L329.7 72.0" fill="none"/><path d="M243.9 186.7 L335.0 72.7" fill="none"/><path d="M252.8 187.3 L343.3 71.9" fill="none"/><path d="M260.4 188.5 L351.2 73.0" fill="none"/><path d="M267.0 188.8 L356.2 71.8" fill="none"/><path d="M275.2 186.7 L366.4 73.2" fill="none"/><path d="M282.3 188.8 L373.3 72.1" fill="none"/><path d="M288.2 188.4 L381.4 70.4" fill="none"/><path d="M299.5 187.4 L388.6 71.9" fill="none"/><path d="M306.1 189.1 L396.7 70.6" fill="none"/><path d="M312.3 189.0 L402.0 71.8" fill="none"/><path d="M322.1 189.2 L412.4 70.7" fill="none"/><path d="M331.1 187.0 L418.9 72.1" fill="none"/><path d="M338.1 188.1 L427.6 71.2" fill="none"/><path d="M346.1 189.0 L435.2 72.1" fill="none"/><path d="M351.8 189.3 L441.5 72.6" fill="none"/><path d="M360.0 188.1 L449.7 72.9" fill="none"/><path d="M370.6 187.3 L461.4 73.2" fill="none"/><path d="M376.9 186.5 L468.9 72.5" fill="none"/><path d="M384.2 188.0 L474.4 73.2" fill="none"/><path d="M392.4 188.7 L483.8 71.1" fill="none"/><path d="M399.7 187.9 L490.6 72.3" fill="none"/></g><rect x="62" y="72" width="248" height="116" rx="14" fill="none" stroke="#2563b8" stroke-width="2.6"/><path d="M96 188 l-4 20 l22 -20" fill="none" stroke="#2563b8" stroke-width="2.4" stroke-linecap="round" stroke-linejoin="round"/><text x="186" y="140" text-anchor="middle" font-family="'Caveat','Bradley Hand',cursive" font-size="24" font-weight="600" fill="#2563b8">“I plan ahead”</text><rect x="410" y="72" width="248" height="116" rx="14" fill="none" stroke="#0f7d73" stroke-width="2.6"/><clipPath id="c11_428_92"><rect x="428" y="92" width="212" height="78" rx="10"/></clipPath><g clip-path="url(#c11_428_92)" stroke="#0f7d73" stroke-width="1.3" stroke-opacity="0.13" stroke-linecap="round"><path d="M301.7 169.2 L429.2 91.7" fill="none"/><path d="M314.8 170.9 L439.0 91.3" fill="none"/><path d="M323.7 170.6 L447.2 93.2" fill="none"/><path d="M330.3 170.6 L454.9 93.6" fill="none"/><path d="M339.9 171.3 L464.5 90.8" fill="none"/><path d="M350.8 169.9 L472.9 92.3" fill="none"/><path d="M358.7 168.6 L484.0 91.7" fill="none"/><path d="M369.4 170.2 L492.1 93.6" fill="none"/><path d="M375.4 170.3 L501.1 92.6" fill="none"/><path d="M387.3 169.2 L509.2 93.1" fill="none"/><path d="M393.6 171.3 L520.6 91.8" fill="none"/><path d="M405.5 169.6 L529.0 90.6" fill="none"/><path d="M415.0 169.5 L538.0 93.5" fill="none"/><path d="M423.0 170.4 L549.7 92.2" fill="none"/><path d="M431.5 170.3 L557.3 91.7" fill="none"/><path d="M442.5 169.7 L567.5 91.5" fill="none"/><path d="M452.8 170.1 L577.4 90.7" fill="none"/><path d="M458.9 171.5 L584.2 90.7" fill="none"/><path d="M469.8 169.5 L594.2 92.1" fill="none"/><path d="M477.5 169.9 L602.7 92.7" fill="none"/><path d="M488.0 169.2 L610.1 91.9" fill="none"/><path d="M498.2 171.4 L621.0 93.2" fill="none"/><path d="M506.7 168.9 L630.7 91.2" fill="none"/><path d="M516.3 169.7 L640.3 91.3" fill="none"/><path d="M522.7 169.9 L646.7 91.0" fill="none"/><path d="M530.1 171.1 L655.8 93.0" fill="none"/><path d="M539.3 169.1 L666.6 92.0" fill="none"/><path d="M550.0 170.2 L675.0 93.4" fill="none"/><path d="M558.4 169.6 L685.6 92.4" fill="none"/><path d="M569.6 169.5 L692.2 90.8" fill="none"/><path d="M578.8 170.8 L702.1 90.5" fill="none"/><path d="M585.5 168.6 L709.9 91.0" fill="none"/><path d="M595.0 169.3 L720.2 91.9" fill="none"/><path d="M603.8 168.9 L728.7 92.0" fill="none"/><path d="M609.7 168.7 L735.0 92.7" fill="none"/><path d="M619.6 169.3 L744.3 91.9" fill="none"/><path d="M628.2 170.5 L753.2 93.0" fill="none"/><path d="M635.8 170.8 L759.2 91.8" fill="none"/><path d="M645.0 168.7 L770.4 93.2" fill="none"/><path d="M653.1 170.8 L778.3 92.1" fill="none"/><path d="M660.1 170.4 L787.4 90.4" fill="none"/><path d="M672.3 169.4 L795.6 91.9" fill="none"/><path d="M679.9 171.1 L804.7 90.6" fill="none"/><path d="M687.1 171.0 L811.0 91.8" fill="none"/><path d="M697.9 171.2 L822.4 90.7" fill="none"/><path d="M707.9 169.0 L829.9 92.1" fill="none"/><path d="M715.9 170.1 L839.6 91.2" fill="none"/><path d="M724.9 171.0 L848.2 92.1" fill="none"/><path d="M731.6 171.3 L855.5 92.6" fill="none"/><path d="M740.8 170.1 L864.7 92.9" fill="none"/><path d="M752.4 169.3 L877.4 93.2" fill="none"/><path d="M759.7 168.5 L885.9 92.5" fill="none"/></g><path d="M432 156 l34 -26 l30 18 l38 -38 l36 22 l38 -30" fill="none" stroke="#0f7d73" stroke-width="3.0" stroke-linecap="round" stroke-linejoin="round"/><path d="M318 130 L400 130" fill="none" stroke="#667185" stroke-width="2.4" stroke-linecap="round" stroke-linejoin="round" stroke-dasharray="9 8"/><clipPath id="cc11_360_130"><circle cx="360" cy="130" r="30"/></clipPath><g clip-path="url(#cc11_360_130)" stroke="#c23b52" stroke-width="1.3" stroke-opacity="0.16" stroke-linecap="round"><path d="M359.3 100.0 L359.3 98.7" fill="none"/><path d="M339.8 107.8 L380.2 106.9" fill="none"/><path d="M332.9 116.2 L386.1 116.1" fill="none"/><path d="M329.6 124.2 L388.4 122.9" fill="none"/><path d="M330.6 132.6 L390.4 133.0" fill="none"/><path d="M331.4 140.6 L387.5 141.5" fill="none"/><path d="M336.4 148.3 L383.9 147.8" fill="none"/><path d="M345.3 155.6 L376.6 156.8" fill="none"/></g><circle cx="360" cy="130" r="30" fill="none" stroke="#c23b52" stroke-width="2.8"/><path d="M346 122 h28 M346 138 h28 M350 148 l20 -36" fill="none" stroke="#c23b52" stroke-width="2.6" stroke-linecap="round" stroke-linejoin="round"/><rect x="190" y="226" width="340" height="52" rx="14" fill="#c23b52" fill-opacity="0.1"/><text x="360" y="262" text-anchor="middle" font-family="'Caveat','Bradley Hand',cursive" font-size="26" font-weight="600" fill="#c23b52">limited agreement</text><text x="360" y="330" text-anchor="middle" font-family="'Caveat','Bradley Hand',cursive" font-size="21" font-weight="600" fill="#232733">two instruments, two different students</text><text x="360" y="380" text-anchor="middle" font-family="'Caveat','Bradley Hand',cursive" font-size="21" font-weight="600" fill="#667185">measure both, or trust neither</text></g></svg>