<svg class="wb" viewBox="0 0 720 430" xmlns="http://www.w3.org/2000/svg" role="img" aria-label="Four learner profiles emerged, and combining inquiry strategies supported conceptual learning better than using any one alone."><defs><filter id="rf164" x="-8%" y="-8%" width="116%" height="116%"><feTurbulence type="fractalNoise" baseFrequency="0.018" numOctaves="3" seed="164" result="n"/><feDisplacementMap in="SourceGraphic" in2="n" scale="1.4" xChannelSelector="R" yChannelSelector="G"/></filter><marker id="ar164_232733" viewBox="0 0 12 12" refX="9" refY="6" markerWidth="6.5" markerHeight="6.5" orient="auto-start-reverse"><path d="M1.5 1.5 L10 6 L1.5 10.5" fill="none" stroke="#232733" stroke-width="2" stroke-linecap="round" stroke-linejoin="round"/></marker><marker id="ar164_6349ae" viewBox="0 0 12 12" refX="9" refY="6" markerWidth="6.5" markerHeight="6.5" orient="auto-start-reverse"><path d="M1.5 1.5 L10 6 L1.5 10.5" fill="none" stroke="#6349ae" stroke-width="2" stroke-linecap="round" stroke-linejoin="round"/></marker><marker id="ar164_225aa8" viewBox="0 0 12 12" refX="9" refY="6" markerWidth="6.5" markerHeight="6.5" orient="auto-start-reverse"><path d="M1.5 1.5 L10 6 L1.5 10.5" fill="none" stroke="#225aa8" stroke-width="2" stroke-linecap="round" stroke-linejoin="round"/></marker><marker id="ar164_0c675e" viewBox="0 0 12 12" refX="9" refY="6" markerWidth="6.5" markerHeight="6.5" orient="auto-start-reverse"><path d="M1.5 1.5 L10 6 L1.5 10.5" fill="none" stroke="#0c675e" stroke-width="2" stroke-linecap="round" stroke-linejoin="round"/></marker><marker id="ar164_166846" viewBox="0 0 12 12" refX="9" refY="6" markerWidth="6.5" markerHeight="6.5" orient="auto-start-reverse"><path d="M1.5 1.5 L10 6 L1.5 10.5" fill="none" stroke="#166846" stroke-width="2" stroke-linecap="round" stroke-linejoin="round"/></marker><marker id="ar164_785511" viewBox="0 0 12 12" refX="9" refY="6" markerWidth="6.5" markerHeight="6.5" orient="auto-start-reverse"><path d="M1.5 1.5 L10 6 L1.5 10.5" fill="none" stroke="#785511" stroke-width="2" stroke-linecap="round" stroke-linejoin="round"/></marker><marker id="ar164_a43245" viewBox="0 0 12 12" refX="9" refY="6" markerWidth="6.5" markerHeight="6.5" orient="auto-start-reverse"><path d="M1.5 1.5 L10 6 L1.5 10.5" fill="none" stroke="#a43245" stroke-width="2" stroke-linecap="round" stroke-linejoin="round"/></marker><marker id="ar164_535c6d" viewBox="0 0 12 12" refX="9" refY="6" markerWidth="6.5" markerHeight="6.5" orient="auto-start-reverse"><path d="M1.5 1.5 L10 6 L1.5 10.5" fill="none" stroke="#535c6d" stroke-width="2" stroke-linecap="round" stroke-linejoin="round"/></marker></defs><rect width="720" height="430" fill="#fdfdfb"/><circle cx="664" cy="44" r="96" fill="#166846" fill-opacity="0.05"/><circle cx="44" cy="386" r="78" fill="#166846" fill-opacity="0.04"/><g filter="url(#rf164)"><text x="360" y="38" text-anchor="middle" font-family="'Caveat','Bradley Hand',cursive" font-size="24" font-weight="600" fill="#232733">three inquiry strategies</text><rect x="46" y="68" width="200" height="72" rx="12" fill="#232733" fill-opacity="0.13"/><rect x="42" y="64" width="200" height="72" rx="12" fill="#fdfdfb"/><clipPath id="h164_164_42_64"><rect x="42" y="64" width="200" height="72" rx="12"/></clipPath><g clip-path="url(#h164_164_42_64)" stroke="#225aa8" stroke-width="1.3" stroke-opacity="0.18" stroke-linecap="round"><path d="M-14 135 L41 65" fill="none"/><path d="M-7 137 L50 65" fill="none"/><path d="M2 136 L57 63" fill="none"/><path d="M11 136 L68 65" fill="none"/><path d="M19 136 L76 65" fill="none"/><path d="M30 135 L88 63" fill="none"/><path d="M38 135 L96 65" fill="none"/><path d="M48 137 L105 63" fill="none"/><path d="M59 137 L114 65" fill="none"/><path d="M68 137 L122 65" fill="none"/><path d="M77 137 L133 65" fill="none"/><path d="M83 135 L140 63" fill="none"/><path d="M91 137 L149 64" fill="none"/><path d="M100 135 L157 63" fill="none"/><path d="M109 136 L167 64" fill="none"/><path d="M119 135 L175 63" fill="none"/><path d="M127 135 L183 65" fill="none"/><path d="M135 135 L193 65" fill="none"/><path d="M146 137 L202 63" fill="none"/><path d="M155 135 L211 64" fill="none"/><path d="M163 137 L218 63" fill="none"/><path d="M170 137 L227 63" fill="none"/><path d="M179 136 L238 64" fill="none"/><path d="M189 135 L247 63" fill="none"/><path d="M198 137 L256 64" fill="none"/><path d="M208 136 L265 63" fill="none"/><path d="M217 137 L275 64" fill="none"/><path d="M228 137 L282 63" fill="none"/><path d="M237 135 L294 65" fill="none"/><path d="M245 137 L301 64" fill="none"/><path d="M255 136 L310 64" fill="none"/><path d="M264 137 L321 63" fill="none"/><path d="M272 136 L329 63" fill="none"/><path d="M281 136 L336 65" fill="none"/><path d="M288 137 L344 65" fill="none"/><path d="M297 136 L355 65" fill="none"/></g><rect x="42" y="64" width="200" height="72" rx="12" fill="none" stroke="#225aa8" stroke-width="2.6"/><text x="142" y="98" text-anchor="middle" font-family="'Caveat','Bradley Hand',cursive" font-size="20" font-weight="600" fill="#225aa8">change</text><text x="142" y="122" text-anchor="middle" font-family="'Caveat','Bradley Hand',cursive" font-size="18" font-weight="600" fill="#225aa8">one thing</text><path d="M142 142 Q221 163 300 208" fill="none" stroke="#225aa8" stroke-width="2.2" stroke-linecap="round" stroke-linejoin="round" marker-end="url(#ar164_225aa8)"/><rect x="274" y="68" width="200" height="72" rx="12" fill="#232733" fill-opacity="0.13"/><rect x="270" y="64" width="200" height="72" rx="12" fill="#fdfdfb"/><clipPath id="st164_165_270_64"><rect x="270" y="64" width="200" height="72" rx="12"/></clipPath><g clip-path="url(#st164_165_270_64)" fill="#0c675e" fill-opacity="0.18"><circle cx="359" cy="103" r="1.2"/><circle cx="425" cy="131" r="0.9"/><circle cx="388" cy="135" r="1.1"/><circle cx="285" cy="125" r="1.0"/><circle cx="315" cy="72" r="1.5"/><circle cx="343" cy="86" r="1.3"/><circle cx="450" cy="105" r="1.4"/><circle cx="302" cy="131" r="1.5"/><circle cx="288" cy="73" r="1.3"/><circle cx="386" cy="67" r="1.2"/><circle cx="414" cy="94" r="1.6"/><circle cx="433" cy="108" r="1.2"/><circle cx="365" cy="70" r="1.2"/><circle cx="342" cy="105" r="1.4"/><circle cx="461" cy="67" r="1.0"/><circle cx="392" cy="123" r="1.4"/><circle cx="342" cy="75" r="1.0"/><circle cx="272" cy="99" r="1.0"/><circle cx="286" cy="98" r="1.3"/><circle cx="281" cy="130" r="1.5"/><circle cx="375" cy="80" r="0.9"/><circle cx="290" cy="74" r="1.3"/><circle cx="273" cy="130" r="1.5"/><circle cx="319" cy="117" r="1.2"/><circle cx="271" cy="82" r="1.4"/><circle cx="406" cy="98" r="0.9"/><circle cx="272" cy="83" r="1.3"/><circle cx="411" cy="108" r="1.1"/><circle cx="378" cy="117" r="1.3"/><circle cx="380" cy="133" r="1.3"/><circle cx="370" cy="123" r="1.1"/><circle cx="370" cy="106" r="1.2"/><circle cx="462" cy="110" r="1.0"/><circle cx="375" cy="123" r="0.9"/><circle cx="380" cy="75" r="1.1"/><circle cx="424" cy="133" r="1.2"/><circle cx="396" cy="73" r="1.1"/><circle cx="338" cy="135" r="1.3"/><circle cx="370" cy="71" r="1.6"/><circle cx="452" cy="116" r="1.0"/><circle cx="284" cy="120" r="1.3"/><circle cx="408" cy="113" r="1.0"/><circle cx="279" cy="123" r="1.3"/><circle cx="276" cy="124" r="1.2"/><circle cx="322" cy="119" r="1.1"/><circle cx="463" cy="98" r="1.3"/><circle cx="457" cy="71" r="1.3"/><circle cx="328" cy="101" r="1.3"/><circle cx="394" cy="110" r="1.2"/><circle cx="381" cy="121" r="1.0"/><circle cx="455" cy="108" r="1.1"/><circle cx="461" cy="66" r="1.2"/><circle cx="276" cy="131" r="1.6"/><circle cx="420" cy="93" r="1.5"/><circle cx="425" cy="97" r="1.3"/><circle cx="299" cy="124" r="1.6"/><circle cx="298" cy="134" r="1.1"/><circle cx="434" cy="135" r="1.5"/><circle cx="418" cy="77" r="1.5"/><circle cx="301" cy="134" r="1.4"/><circle cx="431" cy="126" r="1.2"/><circle cx="379" cy="114" r="1.0"/><circle cx="458" cy="121" r="1.6"/><circle cx="464" cy="95" r="1.6"/><circle cx="394" cy="70" r="1.5"/><circle cx="383" cy="102" r="1.4"/><circle cx="377" cy="112" r="1.5"/><circle cx="408" cy="100" r="1.4"/><circle cx="373" cy="65" r="1.3"/><circle cx="384" cy="131" r="1.3"/><circle cx="365" cy="98" r="1.0"/><circle cx="371" cy="105" r="1.5"/><circle cx="273" cy="123" r="1.0"/><circle cx="362" cy="126" r="1.4"/><circle cx="300" cy="123" r="1.0"/><circle cx="303" cy="101" r="1.0"/><circle cx="309" cy="89" r="1.3"/><circle cx="290" cy="95" r="1.4"/><circle cx="330" cy="100" r="1.6"/><circle cx="287" cy="126" r="1.3"/><circle cx="431" cy="71" r="1.3"/><circle cx="460" cy="79" r="1.0"/><circle cx="303" cy="77" r="1.1"/><circle cx="415" cy="117" r="1.4"/><circle cx="373" cy="96" r="0.9"/><circle cx="345" cy="65" r="1.5"/><circle cx="466" cy="119" r="1.5"/><circle cx="339" cy="108" r="1.6"/><circle cx="414" cy="68" r="1.6"/><circle cx="322" cy="103" r="1.4"/><circle cx="391" cy="121" r="0.9"/><circle cx="382" cy="119" r="1.5"/><circle cx="362" cy="119" r="1.4"/><circle cx="435" cy="87" r="1.3"/><circle cx="445" cy="121" r="0.9"/><circle cx="374" cy="104" r="1.2"/></g><rect x="270" y="64" width="200" height="72" rx="12" fill="none" stroke="#0c675e" stroke-width="2.6"/><text x="370" y="98" text-anchor="middle" font-family="'Caveat','Bradley Hand',cursive" font-size="20" font-weight="600" fill="#0c675e">cover</text><text x="370" y="122" text-anchor="middle" font-family="'Caveat','Bradley Hand',cursive" font-size="18" font-weight="600" fill="#0c675e">the range</text><path d="M370 142 Q365 163 360 208" fill="none" stroke="#0c675e" stroke-width="2.2" stroke-linecap="round" stroke-linejoin="round" marker-end="url(#ar164_0c675e)"/><rect x="502" y="68" width="200" height="72" rx="12" fill="#232733" fill-opacity="0.13"/><rect x="498" y="64" width="200" height="72" rx="12" fill="#fdfdfb"/><clipPath id="h164_166_498_64"><rect x="498" y="64" width="200" height="72" rx="12"/></clipPath><g clip-path="url(#h164_166_498_64)" stroke="#6349ae" stroke-width="1.3" stroke-opacity="0.14759999999999998" stroke-linecap="round"><path d="M442 137 L498 65" fill="none"/><path d="M457 135 L511 65" fill="none"/><path d="M468 136 L524 63" fill="none"/><path d="M481 135 L538 63" fill="none"/><path d="M496 137 L552 65" fill="none"/><path d="M509 137 L565 65" fill="none"/><path d="M522 135 L578 65" fill="none"/><path d="M534 135 L591 63" fill="none"/><path d="M546 136 L604 63" fill="none"/><path d="M560 136 L615 63" fill="none"/><path d="M574 135 L628 63" fill="none"/><path d="M586 136 L642 65" fill="none"/><path d="M599 135 L655 64" fill="none"/><path d="M615 135 L670 64" fill="none"/><path d="M627 136 L683 65" fill="none"/><path d="M638 135 L695 65" fill="none"/><path d="M651 136 L708 65" fill="none"/><path d="M664 136 L722 64" fill="none"/><path d="M678 137 L734 65" fill="none"/><path d="M691 137 L746 65" fill="none"/><path d="M703 135 L760 65" fill="none"/><path d="M717 135 L773 63" fill="none"/><path d="M731 137 L787 63" fill="none"/><path d="M743 137 L799 64" fill="none"/><path d="M442 135 L386 64" fill="none"/><path d="M455 137 L397 64" fill="none"/><path d="M467 137 L410 64" fill="none"/><path d="M479 135 L422 63" fill="none"/><path d="M493 135 L436 64" fill="none"/><path d="M505 136 L450 64" fill="none"/><path d="M519 136 L464 63" fill="none"/><path d="M533 136 L479 64" fill="none"/><path d="M547 135 L490 64" fill="none"/><path d="M559 135 L502 64" fill="none"/><path d="M573 136 L518 63" fill="none"/><path d="M589 135 L532 64" fill="none"/><path d="M602 135 L543 63" fill="none"/><path d="M613 137 L558 65" fill="none"/><path d="M627 135 L571 65" fill="none"/><path d="M639 135 L584 65" fill="none"/><path d="M651 136 L595 65" fill="none"/><path d="M666 135 L612 64" fill="none"/><path d="M682 137 L626 63" fill="none"/><path d="M696 136 L639 64" fill="none"/><path d="M709 137 L652 65" fill="none"/><path d="M724 136 L668 63" fill="none"/><path d="M737 135 L679 65" fill="none"/><path d="M749 137 L694 64" fill="none"/></g><rect x="498" y="64" width="200" height="72" rx="12" fill="none" stroke="#6349ae" stroke-width="2.6"/><text x="598" y="98" text-anchor="middle" font-family="'Caveat','Bradley Hand',cursive" font-size="20" font-weight="600" fill="#6349ae">pick</text><text x="598" y="122" text-anchor="middle" font-family="'Caveat','Bradley Hand',cursive" font-size="18" font-weight="600" fill="#6349ae">good conditions</text><path d="M598 142 Q509 163 420 208" fill="none" stroke="#6349ae" stroke-width="2.2" stroke-linecap="round" stroke-linejoin="round" marker-end="url(#ar164_6349ae)"/><rect x="248" y="218" width="232" height="70" rx="14" fill="#232733" fill-opacity="0.13"/><rect x="244" y="214" width="232" height="70" rx="14" fill="#fdfdfb"/><clipPath id="h164_164_244_214"><rect x="244" y="214" width="232" height="70" rx="14"/></clipPath><g clip-path="url(#h164_164_244_214)" stroke="#166846" stroke-width="1.3" stroke-opacity="0.18039999999999998" stroke-linecap="round"><path d="M190 283 L243 215" fill="none"/><path d="M201 285 L257 215" fill="none"/><path d="M215 284 L268 213" fill="none"/><path d="M228 284 L284 215" fill="none"/><path d="M241 284 L296 215" fill="none"/><path d="M256 283 L312 213" fill="none"/><path d="M269 283 L325 215" fill="none"/><path d="M283 285 L339 213" fill="none"/><path d="M298 285 L352 215" fill="none"/><path d="M313 285 L365 215" fill="none"/><path d="M325 285 L380 215" fill="none"/><path d="M336 283 L392 213" fill="none"/><path d="M349 285 L405 214" fill="none"/><path d="M362 283 L417 213" fill="none"/><path d="M376 284 L432 214" fill="none"/><path d="M390 283 L444 213" fill="none"/><path d="M402 283 L457 215" fill="none"/><path d="M415 283 L472 215" fill="none"/><path d="M431 285 L485 213" fill="none"/><path d="M444 283 L498 214" fill="none"/><path d="M456 285 L510 213" fill="none"/><path d="M468 285 L524 213" fill="none"/><path d="M482 284 L539 214" fill="none"/><path d="M496 283 L552 213" fill="none"/><path d="M509 285 L566 214" fill="none"/><path d="M524 284 L579 213" fill="none"/><path d="M189 285 L136 214" fill="none"/><path d="M205 285 L148 213" fill="none"/><path d="M219 283 L164 215" fill="none"/><path d="M230 285 L176 214" fill="none"/><path d="M246 284 L189 214" fill="none"/><path d="M259 285 L204 213" fill="none"/><path d="M271 284 L217 213" fill="none"/><path d="M285 284 L229 215" fill="none"/><path d="M296 285 L241 215" fill="none"/><path d="M310 284 L257 215" fill="none"/><path d="M326 283 L270 214" fill="none"/><path d="M338 284 L283 214" fill="none"/><path d="M350 285 L296 214" fill="none"/><path d="M365 285 L312 213" fill="none"/><path d="M380 283 L325 215" fill="none"/><path d="M394 284 L337 214" fill="none"/><path d="M408 285 L351 213" fill="none"/><path d="M419 284 L364 215" fill="none"/><path d="M435 284 L380 215" fill="none"/><path d="M449 285 L394 214" fill="none"/><path d="M461 283 L406 214" fill="none"/><path d="M475 283 L421 215" fill="none"/><path d="M487 284 L433 213" fill="none"/><path d="M501 284 L445 215" fill="none"/><path d="M515 284 L459 213" fill="none"/><path d="M528 283 L471 215" fill="none"/></g><rect x="244" y="214" width="232" height="70" rx="14" fill="none" stroke="#166846" stroke-width="3.2"/><text x="360" y="258" text-anchor="middle" font-family="'Caveat','Bradley Hand',cursive" font-size="25" font-weight="600" fill="#166846">combined</text><path d="M268.0 242.0 Q269.5 247.2 275.0 249.0 Q269.5 250.8 268.0 256.0 Q266.5 250.8 261.0 249.0 Q266.5 247.2 268.0 242.0 Z" fill="#166846" fill-opacity=".55" stroke="#166846" stroke-width="1.6" stroke-linejoin="round"/><path d="M452.0 242.0 Q453.5 247.2 459.0 249.0 Q453.5 250.8 452.0 256.0 Q450.5 250.8 445.0 249.0 Q450.5 247.2 452.0 242.0 Z" fill="#166846" fill-opacity=".55" stroke="#166846" stroke-width="1.6" stroke-linejoin="round"/><path d="M232.0 321.4 L232.0 331.0" fill="none" stroke="#785511" stroke-width="2.184" stroke-linecap="round" stroke-linejoin="round"/><clipPath id="tor164_164_232_318"><path d="M220.2 348.2 C220.2 337.3 225.7 328.5 232.0 328.5 C238.3 328.5 243.8 337.3 243.8 348.2 Z"/></clipPath><path d="M220.2 348.2 C220.2 337.3 225.7 328.5 232.0 328.5 C238.3 328.5 243.8 337.3 243.8 348.2 Z" fill="#fdfdfb"/><g clip-path="url(#tor164_164_232_318)" stroke="#785511" stroke-width="0.5" stroke-opacity=".2" stroke-linecap="round"><path d="M219 328 L245 326" fill="none"/><path d="M219 332 L245 327" fill="none"/><path d="M219 334 L245 331" fill="none"/><path d="M219 336 L245 333" fill="none"/><path d="M219 340 L245 337" fill="none"/><path d="M219 343 L245 340" fill="none"/><path d="M219 346 L245 343" fill="none"/></g><path d="M220.2 348.2 C220.2 337.3 225.7 328.5 232.0 328.5 C238.3 328.5 243.8 337.3 243.8 348.2 Z" fill="none" stroke="#785511" stroke-width="1.1" stroke-linejoin="round"/><circle cx="232" cy="318" r="6.3" fill="#fdfdfb" stroke="#785511" stroke-width="1.1"/><path d="M224.7 320.1 A7.6 7.6 0 1 1 239.3 320.1 L238.1 319.7 A6.3 6.3 0 1 0 225.9 319.7 Z" fill="#785511" fill-opacity=".24" stroke="#785511" stroke-width="1.4" stroke-linejoin="round"/><circle cx="229.8" cy="318.2" r="0.76" fill="#785511"/><circle cx="234.2" cy="318.2" r="0.76" fill="#785511"/><path d="M230.3 321.4 h3.4" fill="none" stroke="#785511" stroke-width="0.756" stroke-linecap="round" stroke-linejoin="round"/><path d="M318.0 321.4 L318.0 331.0" fill="none" stroke="#785511" stroke-width="2.184" stroke-linecap="round" stroke-linejoin="round"/><clipPath id="tor164_165_318_318"><path d="M306.2 348.2 C306.2 337.3 311.7 328.5 318.0 328.5 C324.3 328.5 329.8 337.3 329.8 348.2 Z"/></clipPath><path d="M306.2 348.2 C306.2 337.3 311.7 328.5 318.0 328.5 C324.3 328.5 329.8 337.3 329.8 348.2 Z" fill="#fdfdfb"/><g clip-path="url(#tor164_165_318_318)" stroke="#785511" stroke-width="0.5" stroke-opacity=".2" stroke-linecap="round"><path d="M305 328 L331 324" fill="none"/><path d="M305 331 L331 327" fill="none"/><path d="M305 334 L331 330" fill="none"/><path d="M305 338 L331 334" fill="none"/><path d="M305 340 L331 336" fill="none"/><path d="M305 344 L331 339" fill="none"/><path d="M305 346 L331 344" fill="none"/></g><path d="M306.2 348.2 C306.2 337.3 311.7 328.5 318.0 328.5 C324.3 328.5 329.8 337.3 329.8 348.2 Z" fill="none" stroke="#785511" stroke-width="1.1" stroke-linejoin="round"/><circle cx="318" cy="318" r="6.3" fill="#fdfdfb" stroke="#785511" stroke-width="1.1"/><path d="M310.1 319.7 A8.1 8.1 0 1 1 325.9 319.7 L324.2 319.3 A6.3 6.3 0 1 0 311.8 319.3 Z" fill="#785511" fill-opacity=".24" stroke="#785511" stroke-width="1.4" stroke-linejoin="round"/><circle cx="315.8" cy="318.2" r="0.76" fill="#785511"/><circle cx="320.2" cy="318.2" r="0.76" fill="#785511"/><path d="M315.9 320.7 q2.1 1.9 4.2 0" fill="none" stroke="#785511" stroke-width="0.756" stroke-linecap="round" stroke-linejoin="round"/><path d="M404.0 321.4 L404.0 331.0" fill="none" stroke="#785511" stroke-width="2.184" stroke-linecap="round" stroke-linejoin="round"/><clipPath id="tor164_166_404_318"><path d="M392.2 348.2 C392.2 337.3 397.7 328.5 404.0 328.5 C410.3 328.5 415.8 337.3 415.8 348.2 Z"/></clipPath><path d="M392.2 348.2 C392.2 337.3 397.7 328.5 404.0 328.5 C410.3 328.5 415.8 337.3 415.8 348.2 Z" fill="#fdfdfb"/><g clip-path="url(#tor164_166_404_318)" stroke="#785511" stroke-width="0.5" stroke-opacity=".2" stroke-linecap="round"><path d="M391 329 L417 325" fill="none"/><path d="M391 332 L417 328" fill="none"/><path d="M391 335 L417 331" fill="none"/><path d="M391 337 L417 334" fill="none"/><path d="M391 341 L417 338" fill="none"/><path d="M391 344 L417 339" fill="none"/><path d="M391 345 L417 343" fill="none"/></g><path d="M392.2 348.2 C392.2 337.3 397.7 328.5 404.0 328.5 C410.3 328.5 415.8 337.3 415.8 348.2 Z" fill="none" stroke="#785511" stroke-width="1.1" stroke-linejoin="round"/><circle cx="404" cy="318" r="6.3" fill="#fdfdfb" stroke="#785511" stroke-width="1.1"/><path d="M396.7 320.1 A7.6 7.6 0 1 1 411.3 320.1 L410.1 319.7 A6.3 6.3 0 1 0 397.9 319.7 Z" fill="#785511" fill-opacity=".24" stroke="#785511" stroke-width="1.4" stroke-linejoin="round"/><circle cx="401.8" cy="318.2" r="0.76" fill="#785511"/><circle cx="406.2" cy="318.2" r="0.76" fill="#785511"/><path d="M402.3 321.4 h3.4" fill="none" stroke="#785511" stroke-width="0.756" stroke-linecap="round" stroke-linejoin="round"/><path d="M490.0 321.4 L490.0 331.0" fill="none" stroke="#785511" stroke-width="2.184" stroke-linecap="round" stroke-linejoin="round"/><clipPath id="tor164_167_490_318"><path d="M478.2 348.2 C478.2 337.3 483.7 328.5 490.0 328.5 C496.3 328.5 501.8 337.3 501.8 348.2 Z"/></clipPath><path d="M478.2 348.2 C478.2 337.3 483.7 328.5 490.0 328.5 C496.3 328.5 501.8 337.3 501.8 348.2 Z" fill="#fdfdfb"/><g clip-path="url(#tor164_167_490_318)" stroke="#785511" stroke-width="0.5" stroke-opacity=".2" stroke-linecap="round"><path d="M477 328 L503 325" fill="none"/><path d="M477 332 L503 329" fill="none"/><path d="M477 334 L503 330" fill="none"/><path d="M477 338 L503 335" fill="none"/><path d="M477 341 L503 338" fill="none"/><path d="M477 344 L503 340" fill="none"/><path d="M477 347 L503 342" fill="none"/></g><path d="M478.2 348.2 C478.2 337.3 483.7 328.5 490.0 328.5 C496.3 328.5 501.8 337.3 501.8 348.2 Z" fill="none" stroke="#785511" stroke-width="1.1" stroke-linejoin="round"/><circle cx="490" cy="318" r="6.3" fill="#fdfdfb" stroke="#785511" stroke-width="1.1"/><path d="M482.1 319.7 A8.1 8.1 0 1 1 497.9 319.7 L496.2 319.3 A6.3 6.3 0 1 0 483.8 319.3 Z" fill="#785511" fill-opacity=".24" stroke="#785511" stroke-width="1.4" stroke-linejoin="round"/><circle cx="487.8" cy="318.2" r="0.76" fill="#785511"/><circle cx="492.2" cy="318.2" r="0.76" fill="#785511"/><path d="M487.9 320.7 q2.1 1.9 4.2 0" fill="none" stroke="#785511" stroke-width="0.756" stroke-linecap="round" stroke-linejoin="round"/><text x="360" y="382" text-anchor="middle" font-family="'Caveat','Bradley Hand',cursive" font-size="21" font-weight="600" fill="#232733">four learner profiles emerged</text><text x="360" y="412" text-anchor="middle" font-family="'Caveat','Bradley Hand',cursive" font-size="21" font-weight="600" fill="#166846">combining beat using any one alone</text><path d="M220 418 q140 5.5 280 0" fill="none" stroke="#785511" stroke-width="3.4" stroke-linecap="round" stroke-linejoin="round" stroke-opacity="0.85"/></g></svg>