<svg class="wb" viewBox="0 0 720 430" xmlns="http://www.w3.org/2000/svg" role="img" aria-label="Can a dashboard help co-teachers reflect on how they teach together?"><defs>
<filter id="r7" x="-10%" y="-10%" width="120%" height="120%">
  <feTurbulence type="fractalNoise" baseFrequency="0.024" numOctaves="3" seed="7" result="n"/>
  <feDisplacementMap in="SourceGraphic" in2="n" scale="2.2" xChannelSelector="R" yChannelSelector="G"/>
</filter>
<filter id="soft7" x="-20%" y="-20%" width="140%" height="140%">
  <feGaussianBlur stdDeviation="5"/>
</filter>
<marker id="ah7_667185" viewBox="0 0 12 12" refX="9" refY="6" markerWidth="6.5" markerHeight="6.5" orient="auto-start-reverse"><path d="M1.5 1.5 L10 6 L1.5 10.5" fill="none" stroke="#667185" stroke-width="2" stroke-linecap="round" stroke-linejoin="round"/></marker><marker id="ah7_232733" viewBox="0 0 12 12" refX="9" refY="6" markerWidth="6.5" markerHeight="6.5" orient="auto-start-reverse"><path d="M1.5 1.5 L10 6 L1.5 10.5" fill="none" stroke="#232733" stroke-width="2" stroke-linecap="round" stroke-linejoin="round"/></marker><marker id="ah7_2563b8" viewBox="0 0 12 12" refX="9" refY="6" markerWidth="6.5" markerHeight="6.5" orient="auto-start-reverse"><path d="M1.5 1.5 L10 6 L1.5 10.5" fill="none" stroke="#2563b8" stroke-width="2" stroke-linecap="round" stroke-linejoin="round"/></marker><marker id="ah7_6b4fbb" viewBox="0 0 12 12" refX="9" refY="6" markerWidth="6.5" markerHeight="6.5" orient="auto-start-reverse"><path d="M1.5 1.5 L10 6 L1.5 10.5" fill="none" stroke="#6b4fbb" stroke-width="2" stroke-linecap="round" stroke-linejoin="round"/></marker><marker id="ah7_1b8056" viewBox="0 0 12 12" refX="9" refY="6" markerWidth="6.5" markerHeight="6.5" orient="auto-start-reverse"><path d="M1.5 1.5 L10 6 L1.5 10.5" fill="none" stroke="#1b8056" stroke-width="2" stroke-linecap="round" stroke-linejoin="round"/></marker><marker id="ah7_0f7d73" viewBox="0 0 12 12" refX="9" refY="6" markerWidth="6.5" markerHeight="6.5" orient="auto-start-reverse"><path d="M1.5 1.5 L10 6 L1.5 10.5" fill="none" stroke="#0f7d73" stroke-width="2" stroke-linecap="round" stroke-linejoin="round"/></marker><marker id="ah7_c23b52" viewBox="0 0 12 12" refX="9" refY="6" markerWidth="6.5" markerHeight="6.5" orient="auto-start-reverse"><path d="M1.5 1.5 L10 6 L1.5 10.5" fill="none" stroke="#c23b52" stroke-width="2" stroke-linecap="round" stroke-linejoin="round"/></marker><marker id="ah7_946915" viewBox="0 0 12 12" refX="9" refY="6" markerWidth="6.5" markerHeight="6.5" orient="auto-start-reverse"><path d="M1.5 1.5 L10 6 L1.5 10.5" fill="none" stroke="#946915" stroke-width="2" stroke-linecap="round" stroke-linejoin="round"/></marker>
</defs><rect width="720" height="430" fill="#fdfdfb"/><circle cx="666" cy="46" r="86" fill="#2563b8" fill-opacity="0.05"/><circle cx="46" cy="390" r="70" fill="#2563b8" fill-opacity="0.04"/><g filter="url(#r7)"><text x="360" y="46" text-anchor="middle" font-family="'Caveat','Bradley Hand',cursive" font-size="24" font-weight="600" fill="#232733">two teachers, one room</text><clipPath id="cc7_120_100"><circle cx="120" cy="100" r="12.0"/></clipPath><g clip-path="url(#cc7_120_100)" stroke="#2563b8" stroke-width="1.3" stroke-opacity="0.26" stroke-linecap="round"><path d="M120.4 88.0 L120.4 86.9" fill="none"/><path d="M109.6 96.1 L132.3 96.7" fill="none"/><path d="M108.8 105.0 L130.6 104.6" fill="none"/></g><circle cx="120" cy="100" r="12.0" fill="none" stroke="#2563b8" stroke-width="2.3"/><path d="M120 112.0 L120 136.0" fill="none" stroke="#2563b8" stroke-width="2.3" stroke-linecap="round" stroke-linejoin="round"/><path d="M106.0 121.0 Q120 127.0 134.0 121.0" fill="none" stroke="#2563b8" stroke-width="2.3" stroke-linecap="round" stroke-linejoin="round"/><path d="M120 136.0 L108.0 156.0" fill="none" stroke="#2563b8" stroke-width="2.3" stroke-linecap="round" stroke-linejoin="round"/><path d="M120 136.0 L132.0 156.0" fill="none" stroke="#2563b8" stroke-width="2.3" stroke-linecap="round" stroke-linejoin="round"/><path d="M115.0 103.0 q5.0 4.5 10.0 0" fill="none" stroke="#2563b8" stroke-width="1.7" stroke-linecap="round" stroke-linejoin="round"/><clipPath id="cc8_212_100"><circle cx="212" cy="100" r="12.0"/></clipPath><g clip-path="url(#cc8_212_100)" stroke="#c23b52" stroke-width="1.3" stroke-opacity="0.26" stroke-linecap="round"><path d="M212.6 88.0 L212.6 87.7" fill="none"/><path d="M202.1 95.8 L224.5 95.5" fill="none"/><path d="M200.5 104.4 L222.9 105.7" fill="none"/></g><circle cx="212" cy="100" r="12.0" fill="none" stroke="#c23b52" stroke-width="2.3"/><path d="M212 112.0 L212 136.0" fill="none" stroke="#c23b52" stroke-width="2.3" stroke-linecap="round" stroke-linejoin="round"/><path d="M198.0 121.0 Q212 127.0 226.0 121.0" fill="none" stroke="#c23b52" stroke-width="2.3" stroke-linecap="round" stroke-linejoin="round"/><path d="M212 136.0 L200.0 156.0" fill="none" stroke="#c23b52" stroke-width="2.3" stroke-linecap="round" stroke-linejoin="round"/><path d="M212 136.0 L224.0 156.0" fill="none" stroke="#c23b52" stroke-width="2.3" stroke-linecap="round" stroke-linejoin="round"/><path d="M207.0 103.0 q5.0 4.5 10.0 0" fill="none" stroke="#c23b52" stroke-width="1.7" stroke-linecap="round" stroke-linejoin="round"/><text x="166" y="194" text-anchor="middle" font-family="'Caveat','Bradley Hand',cursive" font-size="18" font-weight="600" fill="#667185">what they actually did</text><path d="M250 150 Q299 124 348 150" fill="none" stroke="#667185" stroke-width="2.2" stroke-linecap="round" stroke-linejoin="round" stroke-dasharray="7 6" marker-end="url(#ah7_667185)"/><rect x="370" y="82" width="300" height="176" rx="12" fill="none" stroke="#232733" stroke-width="2.8"/><text x="520" y="112" text-anchor="middle" font-family="'Caveat','Bradley Hand',cursive" font-size="19" font-weight="600" fill="#667185">movement + talk</text><path d="M394 128 h252" fill="none" stroke="#667185" stroke-width="1.8" stroke-linecap="round" stroke-linejoin="round"/><clipPath id="c7_404_192"><rect x="404" y="192.9" width="40" height="45.1" rx="6"/></clipPath><g clip-path="url(#c7_404_192)" stroke="#2563b8" stroke-width="1.3" stroke-opacity="0.34" stroke-linecap="round"><path d="M369.1 237.7 L405.0 192.3" fill="none"/><path d="M373.8 238.0 L410.5 191.5" fill="none"/><path d="M378.8 238.2 L413.2 191.7" fill="none"/><path d="M386.6 238.5 L421.0 192.4" fill="none"/><path d="M393.4 238.2 L428.2 192.6" fill="none"/><path d="M397.0 237.0 L434.2 191.9" fill="none"/><path d="M406.2 237.9 L440.9 192.8" fill="none"/><path d="M411.3 237.9 L446.7 191.8" fill="none"/><path d="M419.9 237.6 L454.5 193.1" fill="none"/><path d="M425.9 239.0 L458.4 194.0" fill="none"/><path d="M428.5 237.9 L465.5 191.7" fill="none"/><path d="M435.5 238.8 L472.3 194.2" fill="none"/><path d="M439.6 238.9 L476.6 194.0" fill="none"/><path d="M448.5 237.6 L484.3 193.8" fill="none"/><path d="M452.9 238.8 L490.1 194.0" fill="none"/><path d="M460.3 239.3 L495.6 193.3" fill="none"/><path d="M467.2 237.4 L501.1 191.5" fill="none"/><path d="M474.6 237.9 L509.0 193.2" fill="none"/></g><rect x="404" y="192.9" width="40" height="45.1" rx="6" fill="none" stroke="#2563b8" stroke-width="2.2"/><clipPath id="c8_466_165"><rect x="466" y="165.84" width="40" height="72.16" rx="6"/></clipPath><g clip-path="url(#c8_466_165)" stroke="#2563b8" stroke-width="1.3" stroke-opacity="0.34" stroke-linecap="round"><path d="M410.3 236.7 L466.8 166.6" fill="none"/><path d="M417.3 238.6 L474.5 165.1" fill="none"/><path d="M423.3 238.4 L480.4 164.3" fill="none"/><path d="M428.8 238.9 L486.1 167.1" fill="none"/><path d="M435.3 238.7 L489.5 164.3" fill="none"/><path d="M440.1 239.5 L496.8 166.4" fill="none"/><path d="M445.8 237.2 L503.0 164.4" fill="none"/><path d="M454.2 237.9 L511.0 164.6" fill="none"/><path d="M458.1 236.9 L516.1 164.8" fill="none"/><path d="M463.9 237.8 L521.6 167.1" fill="none"/><path d="M470.3 238.4 L528.5 164.3" fill="none"/><path d="M476.0 237.4 L532.0 166.5" fill="none"/><path d="M480.7 236.8 L536.6 166.6" fill="none"/><path d="M487.4 237.0 L544.5 166.8" fill="none"/><path d="M492.7 237.3 L549.0 164.8" fill="none"/><path d="M499.9 237.3 L556.7 167.0" fill="none"/><path d="M505.2 237.2 L561.1 167.2" fill="none"/><path d="M510.0 237.2 L565.3 166.4" fill="none"/><path d="M515.9 238.5 L571.9 164.4" fill="none"/><path d="M523.2 239.2 L579.6 164.8" fill="none"/><path d="M527.3 238.3 L583.9 166.8" fill="none"/><path d="M535.0 236.8 L591.6 165.2" fill="none"/><path d="M541.5 236.8 L596.7 164.5" fill="none"/><path d="M545.4 238.0 L601.8 165.1" fill="none"/><path d="M553.6 237.8 L609.5 164.4" fill="none"/><path d="M556.8 237.3 L614.7 166.4" fill="none"/></g><rect x="466" y="165.84" width="40" height="72.16" rx="6" fill="none" stroke="#2563b8" stroke-width="2.2"/><clipPath id="c9_528_210"><rect x="528" y="210.12" width="40" height="27.880000000000003" rx="6"/></clipPath><g clip-path="url(#c9_528_210)" stroke="#2563b8" stroke-width="1.3" stroke-opacity="0.34" stroke-linecap="round"><path d="M505.2 237.6 L527.9 210.0" fill="none"/><path d="M512.5 238.6 L533.5 210.5" fill="none"/><path d="M518.8 236.9 L539.3 209.4" fill="none"/><path d="M526.7 239.2 L545.5 209.1" fill="none"/><path d="M530.7 237.1 L553.7 209.0" fill="none"/><path d="M537.1 237.1 L559.9 211.0" fill="none"/><path d="M544.8 239.0 L565.7 209.8" fill="none"/><path d="M551.0 237.7 L570.2 211.2" fill="none"/><path d="M555.8 238.2 L577.4 211.1" fill="none"/><path d="M560.3 239.3 L584.0 208.7" fill="none"/><path d="M567.2 238.6 L591.9 211.4" fill="none"/><path d="M575.6 237.4 L596.4 211.7" fill="none"/><path d="M581.5 238.8 L601.4 210.1" fill="none"/><path d="M588.7 238.9 L609.2 211.2" fill="none"/></g><rect x="528" y="210.12" width="40" height="27.880000000000003" rx="6" fill="none" stroke="#2563b8" stroke-width="2.2"/><clipPath id="c10_590_178"><rect x="590" y="178.96" width="40" height="59.04" rx="6"/></clipPath><g clip-path="url(#c10_590_178)" stroke="#2563b8" stroke-width="1.3" stroke-opacity="0.34" stroke-linecap="round"><path d="M544.5 237.3 L588.8 178.0" fill="none"/><path d="M551.1 237.0 L596.2 177.4" fill="none"/><path d="M556.8 237.3 L604.8 177.9" fill="none"/><path d="M564.8 237.1 L609.2 178.7" fill="none"/><path d="M572.4 238.9 L618.1 179.5" fill="none"/><path d="M577.2 237.2 L624.7 179.6" fill="none"/><path d="M583.8 239.5 L630.5 177.5" fill="none"/><path d="M588.8 238.8 L635.8 178.2" fill="none"/><path d="M595.9 238.2 L641.0 179.0" fill="none"/><path d="M602.1 236.7 L647.6 178.0" fill="none"/><path d="M605.6 239.4 L651.7 180.3" fill="none"/><path d="M610.6 237.3 L657.2 177.6" fill="none"/><path d="M616.4 238.1 L663.7 178.4" fill="none"/><path d="M622.9 236.5 L668.2 178.8" fill="none"/><path d="M627.3 237.3 L673.0 180.4" fill="none"/><path d="M633.5 236.7 L681.6 180.5" fill="none"/><path d="M640.9 239.2 L689.2 180.4" fill="none"/><path d="M648.4 238.4 L693.7 180.1" fill="none"/><path d="M653.2 237.2 L699.4 178.5" fill="none"/><path d="M660.8 238.1 L704.7 178.8" fill="none"/><path d="M664.2 236.8 L710.7 179.5" fill="none"/><path d="M668.8 237.6 L715.4 179.9" fill="none"/></g><rect x="590" y="178.96" width="40" height="59.04" rx="6" fill="none" stroke="#2563b8" stroke-width="2.2"/><rect x="150" y="292" width="420" height="46" rx="14" fill="#0f7d73" fill-opacity="0.09"/><text x="360" y="322" text-anchor="middle" font-family="'Caveat','Bradley Hand',cursive" font-size="21" font-weight="600" fill="#0f7d73">their own practice, played back</text><text x="360" y="386" text-anchor="middle" font-family="'Caveat','Bradley Hand',cursive" font-size="23" font-weight="600" fill="#232733">seeing it is what changed it</text><path d="M232 396 q128 5.5 256 0" fill="none" stroke="#946915" stroke-width="3.4" stroke-linecap="round" stroke-linejoin="round" stroke-opacity="0.85"/></g></svg>