<svg class="wb" viewBox="0 0 720 430" xmlns="http://www.w3.org/2000/svg" role="img" aria-label="Gender and educational background correlated significantly with how much students trusted AI-powered educational technology."><rect width="720" height="430" fill="#ffffff"/><text x="360.0" y="26" text-anchor="middle" font-family="Inter,-apple-system,'Helvetica Neue',system-ui,sans-serif" font-size="11" font-weight="700" fill="#535c6d" letter-spacing="1.6">WHO TRUSTS AI IN THE CLASSROOM?</text><path d="M110.3 149.6 a30.1 30.1 0 0 1 60.2 0" fill="#ffffff" stroke="#1a1d24" stroke-width="1.4" stroke-linecap="butt" stroke-linejoin="round"/><circle cx="140.44" cy="104" r="20.64" fill="#ffffff" stroke="#1a1d24" stroke-width="1.4"/><circle cx="133.99" cy="101.42" r="1.72" fill="#1a1d24"/><circle cx="146.89" cy="101.42" r="1.72" fill="#1a1d24"/><path d="M135.3 110.9 q5.2 4.7 10.3 0" fill="none" stroke="#1a1d24" stroke-width="1.3760000000000001" stroke-linecap="round" stroke-linejoin="round"/><path d="M189.5 149.6 a30.1 30.1 0 0 1 60.2 0" fill="#ffffff" stroke="#1a1d24" stroke-width="1.4" stroke-linecap="butt" stroke-linejoin="round"/><circle cx="219.56" cy="104" r="20.64" fill="#ffffff" stroke="#1a1d24" stroke-width="1.4"/><circle cx="213.11" cy="101.42" r="1.72" fill="#1a1d24"/><circle cx="226.01" cy="101.42" r="1.72" fill="#1a1d24"/><path d="M215.3 112.6 h8.6" fill="none" stroke="#1a1d24" stroke-width="1.3760000000000001" stroke-linecap="round" stroke-linejoin="round"/><path d="M470.3 149.6 a30.1 30.1 0 0 1 60.2 0" fill="#ffffff" stroke="#1a1d24" stroke-width="1.4" stroke-linecap="butt" stroke-linejoin="round"/><circle cx="500.44" cy="104" r="20.64" fill="#ffffff" stroke="#1a1d24" stroke-width="1.4"/><circle cx="493.99" cy="101.42" r="1.72" fill="#1a1d24"/><circle cx="506.89" cy="101.42" r="1.72" fill="#1a1d24"/><path d="M495.3 110.9 q5.2 4.7 10.3 0" fill="none" stroke="#1a1d24" stroke-width="1.3760000000000001" stroke-linecap="round" stroke-linejoin="round"/><path d="M549.5 149.6 a30.1 30.1 0 0 1 60.2 0" fill="#ffffff" stroke="#1a1d24" stroke-width="1.4" stroke-linecap="butt" stroke-linejoin="round"/><circle cx="579.56" cy="104" r="20.64" fill="#ffffff" stroke="#1a1d24" stroke-width="1.4"/><circle cx="573.1099999999999" cy="101.42" r="1.72" fill="#1a1d24"/><circle cx="586.01" cy="101.42" r="1.72" fill="#1a1d24"/><path d="M574.4 113.5 q5.2 -4.3 10.3 0" fill="none" stroke="#1a1d24" stroke-width="1.3760000000000001" stroke-linecap="round" stroke-linejoin="round"/><rect x="56" y="186" width="248" height="46" rx="3" fill="#6349ae" fill-opacity="0.09"/><path d="M57.5 186 V232" fill="none" stroke="#6349ae" stroke-width="3" stroke-linecap="butt" stroke-linejoin="round"/><text x="180" y="216" text-anchor="middle" font-family="Fraunces,Georgia,'Times New Roman',serif" font-size="20" font-weight="500" fill="#6349ae">gender</text><rect x="416" y="186" width="248" height="46" rx="3" fill="#0c675e" fill-opacity="0.09"/><path d="M417.5 186 V232" fill="none" stroke="#0c675e" stroke-width="3" stroke-linecap="butt" stroke-linejoin="round"/><text x="540" y="216" text-anchor="middle" font-family="Fraunces,Georgia,'Times New Roman',serif" font-size="20" font-weight="500" fill="#0c675e">education</text><path d="M180 236 Q243 246 306 276" fill="none" stroke="#6349ae" stroke-width="1.4" stroke-linecap="round" stroke-linejoin="round"/><path d="M306 276 l-8.0 0.6" fill="none" stroke="#6349ae" stroke-width="1.4" stroke-linecap="round" stroke-linejoin="round"/><path d="M306 276 l-4.5 -6.6" fill="none" stroke="#6349ae" stroke-width="1.4" stroke-linecap="round" stroke-linejoin="round"/><path d="M540 236 Q477 246 414 276" fill="none" stroke="#0c675e" stroke-width="1.4" stroke-linecap="round" stroke-linejoin="round"/><path d="M414 276 l4.5 -6.6" fill="none" stroke="#0c675e" stroke-width="1.4" stroke-linecap="round" stroke-linejoin="round"/><path d="M414 276 l8.0 0.6" fill="none" stroke="#0c675e" stroke-width="1.4" stroke-linecap="round" stroke-linejoin="round"/><rect x="276" y="282" width="168" height="50" rx="3" fill="#785511" fill-opacity="0.12"/><rect x="276" y="282" width="168" height="50" rx="3" fill="none" stroke="#785511" stroke-width="1"/><text x="360" y="315" text-anchor="middle" font-family="Fraunces,Georgia,'Times New Roman',serif" font-size="23" font-weight="600" fill="#1a1d24">trust</text><path d="M56 371 H664" fill="none" stroke="#e3e6ec" stroke-width="1" stroke-linecap="butt" stroke-linejoin="round"/><text x="360.0" y="404" text-anchor="middle" font-family="Fraunces,Georgia,'Times New Roman',serif" font-size="23" font-weight="600" fill="#6349ae">Both predict it, significantly.</text></svg>