<svg class="wb" viewBox="0 0 720 430" xmlns="http://www.w3.org/2000/svg" role="img" aria-label="Adaptive writing support measurably increased revision; learners improved over time, and women revised more efficiently."><rect width="720" height="430" fill="#ffffff"/><text x="56" y="26" text-anchor="start" font-family="Inter,-apple-system,'Helvetica Neue',system-ui,sans-serif" font-size="11" font-weight="700" fill="#535c6d" letter-spacing="1.6">DOES THE FEEDBACK MAKE THEM REVISE?</text><rect x="56" y="58" width="150" height="128" rx="3" fill="none" stroke="#e3e6ec" stroke-width="1"/><path d="M78 78 H184" fill="none" stroke="#e3e6ec" stroke-width="3.4" stroke-linecap="butt" stroke-linejoin="round" stroke-opacity="0.34"/><path d="M78 99 H184" fill="none" stroke="#e3e6ec" stroke-width="3.4" stroke-linecap="butt" stroke-linejoin="round" stroke-opacity="0.34"/><path d="M78 119 H184" fill="none" stroke="#e3e6ec" stroke-width="3.4" stroke-linecap="butt" stroke-linejoin="round" stroke-opacity="0.34"/><path d="M78 139 H184" fill="none" stroke="#e3e6ec" stroke-width="3.4" stroke-linecap="butt" stroke-linejoin="round" stroke-opacity="0.34"/><path d="M78 160 H150" fill="none" stroke="#e3e6ec" stroke-width="3.4" stroke-linecap="butt" stroke-linejoin="round" stroke-opacity="0.34"/><text x="131" y="206" text-anchor="middle" font-family="Inter,-apple-system,'Helvetica Neue',system-ui,sans-serif" font-size="11" font-weight="700" fill="#535c6d" letter-spacing="1.6">DRAFT 1</text><path d="M218 122 L250 122" fill="none" stroke="#1a1d24" stroke-width="1.5" stroke-linecap="round" stroke-linejoin="round"/><path d="M250 122 l-6.9 4.0" fill="none" stroke="#1a1d24" stroke-width="1.5" stroke-linecap="round" stroke-linejoin="round"/><path d="M250 122 l-6.9 -4.0" fill="none" stroke="#1a1d24" stroke-width="1.5" stroke-linecap="round" stroke-linejoin="round"/><rect x="264" y="58" width="192" height="128" rx="3" fill="#785511" fill-opacity="0.1"/><rect x="264" y="58" width="192" height="128" rx="3" fill="none" stroke="#785511" stroke-width="1"/><text x="360" y="116" text-anchor="middle" font-family="Fraunces,Georgia,'Times New Roman',serif" font-size="20" font-weight="500" fill="#785511">adaptive</text><text x="360" y="142" text-anchor="middle" font-family="Fraunces,Georgia,'Times New Roman',serif" font-size="20" font-weight="500" fill="#785511">feedback</text><path d="M470 122 L502 122" fill="none" stroke="#1a1d24" stroke-width="1.5" stroke-linecap="round" stroke-linejoin="round"/><path d="M502 122 l-6.9 4.0" fill="none" stroke="#1a1d24" stroke-width="1.5" stroke-linecap="round" stroke-linejoin="round"/><path d="M502 122 l-6.9 -4.0" fill="none" stroke="#1a1d24" stroke-width="1.5" stroke-linecap="round" stroke-linejoin="round"/><rect x="516" y="58" width="148" height="128" rx="3" fill="#166846" fill-opacity="0.06"/><rect x="516" y="58" width="148" height="128" rx="3" fill="none" stroke="#e3e6ec" stroke-width="1"/><path d="M538 78 H642" fill="none" stroke="#166846" stroke-width="3.4" stroke-linecap="butt" stroke-linejoin="round" stroke-opacity="0.34"/><path d="M538 99 H642" fill="none" stroke="#166846" stroke-width="3.4" stroke-linecap="butt" stroke-linejoin="round" stroke-opacity="0.34"/><path d="M538 119 H642" fill="none" stroke="#166846" stroke-width="3.4" stroke-linecap="butt" stroke-linejoin="round" stroke-opacity="0.34"/><path d="M538 139 H642" fill="none" stroke="#166846" stroke-width="3.4" stroke-linecap="butt" stroke-linejoin="round" stroke-opacity="0.34"/><path d="M538 160 H608" fill="none" stroke="#166846" stroke-width="3.4" stroke-linecap="butt" stroke-linejoin="round" stroke-opacity="0.34"/><path d="M536.4 84 l4.4 4.8 l9.6 -11.2" fill="none" stroke="#166846" stroke-width="1.92" stroke-linecap="round" stroke-linejoin="round"/><path d="M536.4 126 l4.4 4.8 l9.6 -11.2" fill="none" stroke="#166846" stroke-width="1.92" stroke-linecap="round" stroke-linejoin="round"/><text x="590" y="206" text-anchor="middle" font-family="Inter,-apple-system,'Helvetica Neue',system-ui,sans-serif" font-size="11" font-weight="700" fill="#166846" letter-spacing="1.6">DRAFT 2</text><path d="M248.0 286.4 L304.0 272.8 L360.0 263.3 L416.0 252.4 L472.0 240.2" fill="none" stroke="#166846" stroke-width="2.2" stroke-linecap="round" stroke-linejoin="round"/><circle cx="248.0" cy="286.4" r="3" fill="#ffffff" stroke="#166846" stroke-width="1.8"/><circle cx="304.0" cy="272.8" r="3" fill="#ffffff" stroke="#166846" stroke-width="1.8"/><circle cx="360.0" cy="263.28" r="3" fill="#ffffff" stroke="#166846" stroke-width="1.8"/><circle cx="416.0" cy="252.4" r="3" fill="#ffffff" stroke="#166846" stroke-width="1.8"/><circle cx="472.0" cy="240.16" r="3" fill="#ffffff" stroke="#166846" stroke-width="1.8"/><path d="M238 300 H482" fill="none" stroke="#1a1d24" stroke-width="1.2" stroke-linecap="butt" stroke-linejoin="round"/><text x="360" y="322" text-anchor="middle" font-family="Inter,-apple-system,'Helvetica Neue',system-ui,sans-serif" font-size="11" font-weight="700" fill="#166846" letter-spacing="1.6">REVISION WENT UP, AND KEPT GOING</text><path d="M56 371 H664" fill="none" stroke="#e3e6ec" stroke-width="1" stroke-linecap="butt" stroke-linejoin="round"/><text x="360.0" y="404" text-anchor="middle" font-family="Fraunces,Georgia,'Times New Roman',serif" font-size="23" font-weight="600" fill="#785511">Women revised more efficiently.</text></svg>