<svg class="wb" viewBox="0 0 720 430" xmlns="http://www.w3.org/2000/svg" role="img" aria-label="Adaptive writing support measurably increased revision; learners improved over time, and women revised more efficiently."><defs><filter id="rf185" x="-8%" y="-8%" width="116%" height="116%"><feTurbulence type="fractalNoise" baseFrequency="0.018" numOctaves="3" seed="185" result="n"/><feDisplacementMap in="SourceGraphic" in2="n" scale="1.4" xChannelSelector="R" yChannelSelector="G"/></filter><marker id="ar185_232733" viewBox="0 0 12 12" refX="9" refY="6" markerWidth="6.5" markerHeight="6.5" orient="auto-start-reverse"><path d="M1.5 1.5 L10 6 L1.5 10.5" fill="none" stroke="#232733" stroke-width="2" stroke-linecap="round" stroke-linejoin="round"/></marker><marker id="ar185_6349ae" viewBox="0 0 12 12" refX="9" refY="6" markerWidth="6.5" markerHeight="6.5" orient="auto-start-reverse"><path d="M1.5 1.5 L10 6 L1.5 10.5" fill="none" stroke="#6349ae" stroke-width="2" stroke-linecap="round" stroke-linejoin="round"/></marker><marker id="ar185_225aa8" viewBox="0 0 12 12" refX="9" refY="6" markerWidth="6.5" markerHeight="6.5" orient="auto-start-reverse"><path d="M1.5 1.5 L10 6 L1.5 10.5" fill="none" stroke="#225aa8" stroke-width="2" stroke-linecap="round" stroke-linejoin="round"/></marker><marker id="ar185_0c675e" viewBox="0 0 12 12" refX="9" refY="6" markerWidth="6.5" markerHeight="6.5" orient="auto-start-reverse"><path d="M1.5 1.5 L10 6 L1.5 10.5" fill="none" stroke="#0c675e" stroke-width="2" stroke-linecap="round" stroke-linejoin="round"/></marker><marker id="ar185_166846" viewBox="0 0 12 12" refX="9" refY="6" markerWidth="6.5" markerHeight="6.5" orient="auto-start-reverse"><path d="M1.5 1.5 L10 6 L1.5 10.5" fill="none" stroke="#166846" stroke-width="2" stroke-linecap="round" stroke-linejoin="round"/></marker><marker id="ar185_785511" viewBox="0 0 12 12" refX="9" refY="6" markerWidth="6.5" markerHeight="6.5" orient="auto-start-reverse"><path d="M1.5 1.5 L10 6 L1.5 10.5" fill="none" stroke="#785511" stroke-width="2" stroke-linecap="round" stroke-linejoin="round"/></marker><marker id="ar185_a43245" viewBox="0 0 12 12" refX="9" refY="6" markerWidth="6.5" markerHeight="6.5" orient="auto-start-reverse"><path d="M1.5 1.5 L10 6 L1.5 10.5" fill="none" stroke="#a43245" stroke-width="2" stroke-linecap="round" stroke-linejoin="round"/></marker><marker id="ar185_535c6d" viewBox="0 0 12 12" refX="9" refY="6" markerWidth="6.5" markerHeight="6.5" orient="auto-start-reverse"><path d="M1.5 1.5 L10 6 L1.5 10.5" fill="none" stroke="#535c6d" stroke-width="2" stroke-linecap="round" stroke-linejoin="round"/></marker></defs><rect width="720" height="430" fill="#fdfdfb"/><circle cx="664" cy="44" r="96" fill="#785511" fill-opacity="0.05"/><circle cx="44" cy="386" r="78" fill="#785511" fill-opacity="0.04"/><g filter="url(#rf185)"><text x="360" y="38" text-anchor="middle" font-family="'Caveat','Bradley Hand',cursive" font-size="23" font-weight="600" fill="#232733">does the feedback make them revise?</text><rect x="52" y="82" width="160" height="132" rx="8" fill="#232733" fill-opacity="0.13"/><rect x="48" y="78" width="160" height="132" rx="8" fill="#fdfdfb"/><clipPath id="h185_185_48_78"><rect x="48" y="78" width="160" height="132" rx="8"/></clipPath><g clip-path="url(#h185_185_48_78)" stroke="#535c6d" stroke-width="1.3" stroke-opacity="0.16" stroke-linecap="round"><path d="M-55 209 L48 78" fill="none"/><path d="M-47 209 L58 77" fill="none"/><path d="M-37 210 L67 77" fill="none"/><path d="M-29 211 L74 78" fill="none"/><path d="M-18 209 L85 78" fill="none"/><path d="M-11 209 L91 78" fill="none"/><path d="M-3 210 L101 79" fill="none"/><path d="M6 209 L108 79" fill="none"/><path d="M15 209 L118 77" fill="none"/><path d="M25 211 L128 77" fill="none"/><path d="M35 210 L138 77" fill="none"/><path d="M43 210 L146 79" fill="none"/><path d="M52 209 L157 78" fill="none"/><path d="M62 210 L164 78" fill="none"/><path d="M72 211 L173 77" fill="none"/><path d="M80 211 L183 78" fill="none"/><path d="M86 211 L192 79" fill="none"/><path d="M97 209 L200 77" fill="none"/><path d="M105 210 L207 79" fill="none"/><path d="M115 209 L218 78" fill="none"/><path d="M125 211 L227 79" fill="none"/><path d="M132 210 L238 78" fill="none"/><path d="M141 209 L246 79" fill="none"/><path d="M152 210 L255 77" fill="none"/><path d="M160 210 L262 79" fill="none"/><path d="M169 211 L272 77" fill="none"/><path d="M178 211 L281 79" fill="none"/><path d="M188 211 L292 78" fill="none"/><path d="M196 210 L299 78" fill="none"/><path d="M205 209 L308 78" fill="none"/><path d="M215 211 L317 78" fill="none"/><path d="M221 209 L325 79" fill="none"/><path d="M230 209 L334 79" fill="none"/><path d="M241 211 L343 78" fill="none"/><path d="M249 209 L352 78" fill="none"/><path d="M258 209 L361 79" fill="none"/><path d="M265 211 L371 77" fill="none"/><path d="M276 209 L378 79" fill="none"/><path d="M282 210 L386 79" fill="none"/><path d="M294 211 L397 78" fill="none"/><path d="M301 211 L406 79" fill="none"/></g><rect x="48" y="78" width="160" height="132" rx="8" fill="none" stroke="#535c6d" stroke-width="2.2"/><path d="M60.0 98.6 Q128.0 98.5 196.0 98.6" fill="none" stroke="#535c6d" stroke-width="1.9" stroke-linecap="round" stroke-linejoin="round" stroke-opacity="0.72"/><path d="M60.0 119.2 Q128.0 119.8 196.0 119.2" fill="none" stroke="#535c6d" stroke-width="1.9" stroke-linecap="round" stroke-linejoin="round" stroke-opacity="0.72"/><path d="M60.0 139.9 Q128.0 139.3 196.0 139.9" fill="none" stroke="#535c6d" stroke-width="1.9" stroke-linecap="round" stroke-linejoin="round" stroke-opacity="0.72"/><path d="M60.0 160.5 Q128.0 160.4 196.0 160.5" fill="none" stroke="#535c6d" stroke-width="1.9" stroke-linecap="round" stroke-linejoin="round" stroke-opacity="0.72"/><path d="M60.0 181.1 Q120.0 181.7 180.0 181.1" fill="none" stroke="#535c6d" stroke-width="1.9" stroke-linecap="round" stroke-linejoin="round" stroke-opacity="0.72"/><text x="128" y="236" text-anchor="middle" font-family="'Caveat','Bradley Hand',cursive" font-size="20" font-weight="600" fill="#535c6d">draft 1</text><path d="M220.0 144.0 Q246.0 143.9 272.0 144.0" fill="none" stroke="#232733" stroke-width="2.6" stroke-linecap="round" stroke-linejoin="round" marker-end="url(#ar185_232733)"/><rect x="286" y="74" width="154" height="150" rx="13" fill="#232733" fill-opacity="0.13"/><rect x="282" y="70" width="154" height="150" rx="13" fill="#fdfdfb"/><clipPath id="h185_185_282_70"><rect x="282" y="70" width="154" height="150" rx="13"/></clipPath><g clip-path="url(#h185_185_282_70)" stroke="#785511" stroke-width="1.3" stroke-opacity="0.14759999999999998" stroke-linecap="round"><path d="M165 219 L282 70" fill="none"/><path d="M177 219 L297 69" fill="none"/><path d="M192 220 L310 69" fill="none"/><path d="M205 221 L322 70" fill="none"/><path d="M220 219 L337 70" fill="none"/><path d="M231 219 L348 70" fill="none"/><path d="M243 220 L362 71" fill="none"/><path d="M258 219 L374 71" fill="none"/><path d="M271 219 L388 69" fill="none"/><path d="M285 221 L403 69" fill="none"/><path d="M299 220 L417 69" fill="none"/><path d="M312 220 L430 71" fill="none"/><path d="M326 219 L445 70" fill="none"/><path d="M341 220 L456 70" fill="none"/><path d="M355 221 L470 69" fill="none"/><path d="M368 221 L485 70" fill="none"/><path d="M378 221 L498 71" fill="none"/><path d="M393 219 L510 69" fill="none"/><path d="M406 220 L522 71" fill="none"/><path d="M421 219 L537 70" fill="none"/><path d="M434 221 L551 71" fill="none"/><path d="M446 220 L566 70" fill="none"/><path d="M460 219 L579 71" fill="none"/><path d="M475 220 L593 69" fill="none"/><path d="M488 220 L604 71" fill="none"/><path d="M501 221 L618 69" fill="none"/><path d="M515 221 L632 71" fill="none"/><path d="M529 221 L647 70" fill="none"/><path d="M542 220 L659 70" fill="none"/><path d="M165 219 L48 70" fill="none"/><path d="M179 221 L61 70" fill="none"/><path d="M190 219 L74 71" fill="none"/><path d="M204 219 L88 71" fill="none"/><path d="M219 221 L100 70" fill="none"/><path d="M231 219 L114 70" fill="none"/><path d="M245 219 L128 71" fill="none"/><path d="M257 221 L142 69" fill="none"/><path d="M272 219 L154 71" fill="none"/><path d="M282 220 L166 71" fill="none"/><path d="M299 221 L181 70" fill="none"/><path d="M311 221 L196 71" fill="none"/><path d="M326 220 L210 69" fill="none"/><path d="M342 220 L223 71" fill="none"/><path d="M357 221 L238 70" fill="none"/><path d="M370 220 L253 70" fill="none"/><path d="M381 219 L266 71" fill="none"/><path d="M398 220 L281 69" fill="none"/><path d="M413 219 L294 69" fill="none"/><path d="M426 221 L308 70" fill="none"/><path d="M441 220 L324 70" fill="none"/><path d="M454 219 L338 70" fill="none"/><path d="M469 220 L350 71" fill="none"/><path d="M481 220 L364 71" fill="none"/><path d="M495 221 L377 70" fill="none"/><path d="M508 220 L390 69" fill="none"/><path d="M522 220 L405 71" fill="none"/><path d="M535 220 L418 69" fill="none"/><path d="M548 220 L429 69" fill="none"/></g><rect x="282" y="70" width="154" height="150" rx="13" fill="none" stroke="#785511" stroke-width="2.8"/><path d="M325 138 A34 34 0 0 1 393 138" fill="none" stroke="#535c6d" stroke-width="3.0" stroke-linecap="round" stroke-linejoin="round" stroke-opacity="0.35"/><path d="M325.0 138.0 A34 34 0 0 1 385.2 116.3" fill="none" stroke="#785511" stroke-width="3.4" stroke-linecap="round" stroke-linejoin="round"/><path d="M359 138 L385.2 116.3" fill="none" stroke="#232733" stroke-width="2.2" stroke-linecap="round" stroke-linejoin="round"/><circle cx="359" cy="138" r="3.4" fill="#232733"/><text x="359" y="178" text-anchor="middle" font-family="'Caveat','Bradley Hand',cursive" font-size="20" font-weight="600" fill="#785511">adaptive</text><text x="359" y="202" text-anchor="middle" font-family="'Caveat','Bradley Hand',cursive" font-size="20" font-weight="600" fill="#785511">feedback</text><path d="M448.0 144.0 Q474.0 144.7 500.0 144.0" fill="none" stroke="#232733" stroke-width="2.6" stroke-linecap="round" stroke-linejoin="round" marker-end="url(#ar185_232733)"/><rect x="514" y="82" width="160" height="132" rx="8" fill="#232733" fill-opacity="0.13"/><rect x="510" y="78" width="160" height="132" rx="8" fill="#fdfdfb"/><clipPath id="h185_187_510_78"><rect x="510" y="78" width="160" height="132" rx="8"/></clipPath><g clip-path="url(#h185_187_510_78)" stroke="#166846" stroke-width="1.3" stroke-opacity="0.16" stroke-linecap="round"><path d="M406 210 L511 79" fill="none"/><path d="M416 211 L520 78" fill="none"/><path d="M426 209 L529 78" fill="none"/><path d="M433 211 L536 78" fill="none"/><path d="M443 210 L546 77" fill="none"/><path d="M452 211 L555 78" fill="none"/><path d="M462 209 L565 77" fill="none"/><path d="M472 209 L574 78" fill="none"/><path d="M480 210 L583 79" fill="none"/><path d="M488 210 L591 77" fill="none"/><path d="M496 211 L601 79" fill="none"/><path d="M505 211 L611 79" fill="none"/><path d="M515 210 L619 77" fill="none"/><path d="M525 211 L628 79" fill="none"/><path d="M534 209 L636 77" fill="none"/><path d="M543 211 L646 77" fill="none"/><path d="M553 210 L655 77" fill="none"/><path d="M562 211 L662 77" fill="none"/><path d="M571 210 L674 77" fill="none"/><path d="M579 209 L683 79" fill="none"/><path d="M587 210 L691 78" fill="none"/><path d="M598 211 L700 79" fill="none"/><path d="M607 211 L710 77" fill="none"/><path d="M615 211 L719 79" fill="none"/><path d="M623 211 L727 77" fill="none"/><path d="M633 210 L738 78" fill="none"/><path d="M643 211 L745 77" fill="none"/><path d="M651 209 L754 78" fill="none"/><path d="M662 209 L766 77" fill="none"/><path d="M670 210 L773 79" fill="none"/><path d="M678 210 L781 79" fill="none"/><path d="M689 209 L792 77" fill="none"/><path d="M699 211 L800 78" fill="none"/><path d="M708 211 L811 77" fill="none"/><path d="M718 211 L820 77" fill="none"/><path d="M724 210 L829 78" fill="none"/><path d="M734 210 L836 78" fill="none"/><path d="M742 211 L845 79" fill="none"/><path d="M750 209 L852 77" fill="none"/><path d="M758 211 L861 79" fill="none"/><path d="M765 209 L870 79" fill="none"/></g><rect x="510" y="78" width="160" height="132" rx="8" fill="none" stroke="#166846" stroke-width="2.2"/><path d="M522.0 98.6 Q590.0 98.0 658.0 98.6" fill="none" stroke="#166846" stroke-width="1.9" stroke-linecap="round" stroke-linejoin="round" stroke-opacity="0.72"/><path d="M522.0 119.2 Q590.0 119.2 658.0 119.2" fill="none" stroke="#166846" stroke-width="1.9" stroke-linecap="round" stroke-linejoin="round" stroke-opacity="0.72"/><path d="M522.0 139.9 Q590.0 140.4 658.0 139.9" fill="none" stroke="#166846" stroke-width="1.9" stroke-linecap="round" stroke-linejoin="round" stroke-opacity="0.72"/><path d="M522.0 160.5 Q590.0 159.6 658.0 160.5" fill="none" stroke="#166846" stroke-width="1.9" stroke-linecap="round" stroke-linejoin="round" stroke-opacity="0.72"/><path d="M522.0 181.1 Q582.0 182.0 642.0 181.1" fill="none" stroke="#166846" stroke-width="1.9" stroke-linecap="round" stroke-linejoin="round" stroke-opacity="0.72"/><path d="M532 106 l5 6 l10 -13" fill="none" stroke="#166846" stroke-width="3.4" stroke-linecap="round" stroke-linejoin="round"/><path d="M532 152 l5 6 l10 -13" fill="none" stroke="#166846" stroke-width="3.4" stroke-linecap="round" stroke-linejoin="round"/><text x="590" y="236" text-anchor="middle" font-family="'Caveat','Bradley Hand',cursive" font-size="20" font-weight="600" fill="#166846">draft 2</text><path d="M268 320 L452 320" fill="none" stroke="#232733" stroke-width="2.2" stroke-linecap="round" stroke-linejoin="round"/><path d="M268 320 L268 250" fill="none" stroke="#232733" stroke-width="2.2" stroke-linecap="round" stroke-linejoin="round"/><path d="M274.0 306.1 Q295.5 306.1 317.0 295.6 Q338.5 295.6 360.0 288.1 Q381.5 288.1 403.0 279.4 Q424.5 279.4 446.0 270.1" fill="none" stroke="#166846" stroke-width="3.0" stroke-linecap="round" stroke-linejoin="round"/><circle cx="274.0" cy="306.1" r="3.2" fill="#fdfdfb" stroke="#166846" stroke-width="2"/><circle cx="317.0" cy="295.6" r="3.2" fill="#fdfdfb" stroke="#166846" stroke-width="2"/><circle cx="360.0" cy="288.1" r="3.2" fill="#fdfdfb" stroke="#166846" stroke-width="2"/><circle cx="403.0" cy="279.4" r="3.2" fill="#fdfdfb" stroke="#166846" stroke-width="2"/><circle cx="446.0" cy="270.1" r="3.2" fill="#fdfdfb" stroke="#166846" stroke-width="2"/><rect x="155.0" y="336" width="410" height="46" rx="14" fill="#166846" fill-opacity="0.1"/><text x="360" y="368" text-anchor="middle" font-family="'Caveat','Bradley Hand',cursive" font-size="21" font-weight="600" fill="#166846">revision went up, and kept going</text><text x="360" y="410" text-anchor="middle" font-family="'Caveat','Bradley Hand',cursive" font-size="20" font-weight="600" fill="#535c6d">women revised more efficiently</text></g></svg>