<svg class="wb" viewBox="0 0 720 430" xmlns="http://www.w3.org/2000/svg" role="img" aria-label="Adaptive writing support measurably increased revision; learners improved over time, and women revised more efficiently."><rect width="720" height="430" fill="#ffffff"/><g transform="translate(0 -40)"><rect x="42" y="62" width="178" height="26" rx="6" fill="#e5e9ef"/><text x="131.0" y="79.5" text-anchor="middle" font-family="Inter,-apple-system,'Helvetica Neue',system-ui,sans-serif" font-size="12.5" font-weight="700" fill="#1c3461">Draft 1</text><rect x="42" y="96" width="178" height="178" rx="7" fill="#f1f3f6" stroke="#c9d2de" stroke-width="1.4"/><path d="M62 120 H200" fill="none" stroke="#c3cbd6" stroke-width="4" stroke-linecap="butt" stroke-linejoin="round"/><path d="M62 141 H200" fill="none" stroke="#c3cbd6" stroke-width="4" stroke-linecap="butt" stroke-linejoin="round"/><path d="M62 162 H200" fill="none" stroke="#c3cbd6" stroke-width="4" stroke-linecap="butt" stroke-linejoin="round"/><path d="M62 183 H200" fill="none" stroke="#c3cbd6" stroke-width="4" stroke-linecap="butt" stroke-linejoin="round"/><path d="M62 204 H200" fill="none" stroke="#c3cbd6" stroke-width="4" stroke-linecap="butt" stroke-linejoin="round"/><path d="M62 225 H200" fill="none" stroke="#c3cbd6" stroke-width="4" stroke-linecap="butt" stroke-linejoin="round"/><path d="M62 246 H162" fill="none" stroke="#c3cbd6" stroke-width="4" stroke-linecap="butt" stroke-linejoin="round"/><path d="M232 181.22 H238.84 V176.0 L250 185 L238.84 194.0 V188.78 H232 Z" fill="#1c3461"/><rect x="264" y="62" width="178" height="26" rx="6" fill="#f5e6c6"/><text x="353.0" y="79.5" text-anchor="middle" font-family="Inter,-apple-system,'Helvetica Neue',system-ui,sans-serif" font-size="12.5" font-weight="700" fill="#785511">Adaptive feedback</text><rect x="264" y="96" width="178" height="178" rx="7" fill="#f5e6c6" stroke="#c9d2de" stroke-width="1.4"/><circle cx="306" cy="128" r="5" fill="#ffffff" stroke="#c9d2de" stroke-width="1"/><circle cx="326" cy="128" r="5" fill="#ffffff" stroke="#c9d2de" stroke-width="1"/><circle cx="346" cy="128" r="5" fill="#ffffff" stroke="#c9d2de" stroke-width="1"/><circle cx="366" cy="128" r="5" fill="#ffffff" stroke="#c9d2de" stroke-width="1"/><circle cx="386" cy="128" r="5" fill="#785511" stroke="#785511" stroke-width="1"/><circle cx="306" cy="148" r="5" fill="#ffffff" stroke="#c9d2de" stroke-width="1"/><circle cx="326" cy="148" r="5" fill="#ffffff" stroke="#c9d2de" stroke-width="1"/><circle cx="346" cy="148" r="5" fill="#ffffff" stroke="#c9d2de" stroke-width="1"/><circle cx="366" cy="148" r="5" fill="#785511" stroke="#785511" stroke-width="1"/><circle cx="386" cy="148" r="5" fill="#ffffff" stroke="#c9d2de" stroke-width="1"/><circle cx="306" cy="168" r="5" fill="#ffffff" stroke="#c9d2de" stroke-width="1"/><circle cx="326" cy="168" r="5" fill="#ffffff" stroke="#c9d2de" stroke-width="1"/><circle cx="346" cy="168" r="5" fill="#ffffff" stroke="#c9d2de" stroke-width="1"/><circle cx="366" cy="168" r="5" fill="#ffffff" stroke="#c9d2de" stroke-width="1"/><circle cx="386" cy="168" r="5" fill="#785511" stroke="#785511" stroke-width="1"/><circle cx="306" cy="188" r="5" fill="#ffffff" stroke="#c9d2de" stroke-width="1"/><circle cx="326" cy="188" r="5" fill="#ffffff" stroke="#c9d2de" stroke-width="1"/><circle cx="346" cy="188" r="5" fill="#785511" stroke="#785511" stroke-width="1"/><circle cx="366" cy="188" r="5" fill="#ffffff" stroke="#c9d2de" stroke-width="1"/><circle cx="386" cy="188" r="5" fill="#ffffff" stroke="#c9d2de" stroke-width="1"/><circle cx="306" cy="208" r="5" fill="#ffffff" stroke="#c9d2de" stroke-width="1"/><circle cx="326" cy="208" r="5" fill="#ffffff" stroke="#c9d2de" stroke-width="1"/><circle cx="346" cy="208" r="5" fill="#ffffff" stroke="#c9d2de" stroke-width="1"/><circle cx="366" cy="208" r="5" fill="#ffffff" stroke="#c9d2de" stroke-width="1"/><circle cx="386" cy="208" r="5" fill="#785511" stroke="#785511" stroke-width="1"/><text x="353.0" y="250" text-anchor="middle" font-family="Inter,-apple-system,'Helvetica Neue',system-ui,sans-serif" font-size="10.5" font-weight="500" fill="#785511">tailored to the draft</text><path d="M454 181.22 H460.84 V176.0 L472 185 L460.84 194.0 V188.78 H454 Z" fill="#1c3461"/><rect x="486" y="62" width="178" height="26" rx="6" fill="#d2ecd8"/><text x="575.0" y="79.5" text-anchor="middle" font-family="Inter,-apple-system,'Helvetica Neue',system-ui,sans-serif" font-size="12.5" font-weight="700" fill="#106b2b">Draft 2</text><rect x="486" y="96" width="178" height="178" rx="7" fill="#d2ecd8" stroke="#c9d2de" stroke-width="1.4"/><path d="M506 120 H644" fill="none" stroke="#8ecb9f" stroke-width="4" stroke-linecap="butt" stroke-linejoin="round"/><path d="M506 141 H644" fill="none" stroke="#8ecb9f" stroke-width="4" stroke-linecap="butt" stroke-linejoin="round"/><path d="M506 162 H644" fill="none" stroke="#8ecb9f" stroke-width="4" stroke-linecap="butt" stroke-linejoin="round"/><path d="M506 183 H644" fill="none" stroke="#8ecb9f" stroke-width="4" stroke-linecap="butt" stroke-linejoin="round"/><path d="M506 204 H644" fill="none" stroke="#8ecb9f" stroke-width="4" stroke-linecap="butt" stroke-linejoin="round"/><path d="M506 225 H644" fill="none" stroke="#8ecb9f" stroke-width="4" stroke-linecap="butt" stroke-linejoin="round"/><path d="M506 246 H606" fill="none" stroke="#8ecb9f" stroke-width="4" stroke-linecap="butt" stroke-linejoin="round"/><path d="M627.4 254 l5.0 5.5 l11.0 -12.7" fill="none" stroke="#106b2b" stroke-width="2.4200000000000004" stroke-linecap="round" stroke-linejoin="round"/><rect x="42" y="290" width="636" height="72" rx="7" fill="#f1f3f6" stroke="#c9d2de" stroke-width="1.4"/><path d="M212.0 338.8 L277.0 329.6 L342.0 323.2 L407.0 315.8 L472.0 307.5" fill="none" stroke="#106b2b" stroke-width="2.0" stroke-linecap="round" stroke-linejoin="round"/><circle cx="212.0" cy="338.8" r="2.8" fill="#ffffff" stroke="#106b2b" stroke-width="1.6"/><circle cx="277.0" cy="329.6" r="2.8" fill="#ffffff" stroke="#106b2b" stroke-width="1.6"/><circle cx="342.0" cy="323.15999999999997" r="2.8" fill="#ffffff" stroke="#106b2b" stroke-width="1.6"/><circle cx="407.0" cy="315.8" r="2.8" fill="#ffffff" stroke="#106b2b" stroke-width="1.6"/><circle cx="472.0" cy="307.52" r="2.8" fill="#ffffff" stroke="#106b2b" stroke-width="1.6"/><text x="98" y="322" text-anchor="start" font-family="Inter,-apple-system,'Helvetica Neue',system-ui,sans-serif" font-size="11.5" font-weight="500" fill="#106b2b">Revision went up,</text><text x="98" y="338" text-anchor="start" font-family="Inter,-apple-system,'Helvetica Neue',system-ui,sans-serif" font-size="11.5" font-weight="500" fill="#106b2b">and kept going</text><text x="608" y="332" text-anchor="middle" font-family="Inter,-apple-system,'Helvetica Neue',system-ui,sans-serif" font-size="10.5" font-weight="500" fill="#4f5a6b">over the term</text></g><path d="M42 366 H678" fill="none" stroke="#c9d2de" stroke-width="1.2" stroke-linecap="butt" stroke-linejoin="round"/><text x="360.0" y="401" text-anchor="middle" font-family="Fraunces,Georgia,'Times New Roman',serif" font-size="24" font-weight="600" fill="#785511">Women revised more efficiently.</text></svg>