<svg class="wb" viewBox="0 0 720 430" xmlns="http://www.w3.org/2000/svg" role="img" aria-label="Showing teachers machine-learned learner profiles prompted concrete interventions and course changes, not just interest."><rect width="720" height="430" fill="#ffffff"/><g transform="translate(0 -40)"><rect x="42" y="76" width="186" height="176" rx="7" fill="#f1f3f6" stroke="#c9d2de" stroke-width="1.4"/><text x="135" y="98" text-anchor="middle" font-family="Inter,-apple-system,'Helvetica Neue',system-ui,sans-serif" font-size="12" font-weight="700" fill="#6349ae">Learner profile</text><text x="120" y="123" text-anchor="end" font-family="Inter,-apple-system,'Helvetica Neue',system-ui,sans-serif" font-size="10" font-weight="500" fill="#4f5a6b">Effort</text><rect x="126" y="112" width="21" height="13" rx="1.5" fill="#ded6f4"/><rect x="150" y="112" width="21" height="13" rx="1.5" fill="#ded6f4"/><rect x="174" y="112" width="21" height="13" rx="1.5" fill="#ded6f4"/><rect x="198" y="112" width="21" height="13" rx="1.5" fill="#ded6f4"/><text x="120" y="149" text-anchor="end" font-family="Inter,-apple-system,'Helvetica Neue',system-ui,sans-serif" font-size="10" font-weight="500" fill="#4f5a6b">Regularity</text><rect x="126" y="138" width="21" height="13" rx="1.5" fill="#ded6f4"/><rect x="150" y="138" width="21" height="13" rx="1.5" fill="#ded6f4"/><rect x="174" y="138" width="21" height="13" rx="1.5" fill="#ded6f4"/><rect x="198" y="138" width="21" height="13" rx="1.5" fill="#ded6f4"/><text x="120" y="175" text-anchor="end" font-family="Inter,-apple-system,'Helvetica Neue',system-ui,sans-serif" font-size="10" font-weight="500" fill="#4f5a6b">Control</text><rect x="126" y="164" width="21" height="13" rx="1.5" fill="#ded6f4"/><rect x="150" y="164" width="21" height="13" rx="1.5" fill="#ded6f4"/><rect x="174" y="164" width="21" height="13" rx="1.5" fill="#ded6f4"/><rect x="198" y="164" width="21" height="13" rx="1.5" fill="#ded6f4"/><rect x="84" y="204.48" width="22" height="29.52" rx="2" fill="#ded6f4"/><path d="M84 204.48 H106" fill="none" stroke="#6349ae" stroke-width="2.4" stroke-linecap="butt" stroke-linejoin="round"/><rect x="122" y="218.88" width="22" height="15.12" rx="2" fill="#ded6f4"/><path d="M122 218.88 H144" fill="none" stroke="#6349ae" stroke-width="2.4" stroke-linecap="butt" stroke-linejoin="round"/><rect x="160" y="210.96" width="22" height="23.04" rx="2" fill="#ded6f4"/><path d="M160 210.96 H182" fill="none" stroke="#6349ae" stroke-width="2.4" stroke-linecap="butt" stroke-linejoin="round"/><path d="M76 234 H190" fill="none" stroke="#16202e" stroke-width="1.2" stroke-linecap="butt" stroke-linejoin="round"/><path d="M236 160.22 H242.84 V155.0 L254 164 L242.84 173.0 V167.78 H236 Z" fill="#1c3461"/><path d="M269.0 185.0 a23.0 23.0 0 0 1 46.0 0" fill="#ffffff" stroke="#1c3461" stroke-width="1.5" stroke-linecap="butt" stroke-linejoin="round"/><circle cx="292" cy="150" r="15.64" fill="#ffffff" stroke="#1c3461" stroke-width="1.5"/><circle cx="286.94" cy="148.16" r="1.4720000000000002" fill="#1c3461"/><circle cx="297.06" cy="148.16" r="1.4720000000000002" fill="#1c3461"/><path d="M287.9 155.5 q4.1 3.7 8.3 0" fill="none" stroke="#1c3461" stroke-width="1.4" stroke-linecap="round" stroke-linejoin="round"/><text x="292" y="214" text-anchor="middle" font-family="Inter,-apple-system,'Helvetica Neue',system-ui,sans-serif" font-size="10.5" font-weight="500" fill="#4f5a6b">teacher</text><rect x="358" y="85" width="320" height="167" rx="6" fill="none" stroke="#106b2b" stroke-width="1.6"/><rect x="437.25" y="76" width="161.5" height="19" rx="3" fill="#106b2b"/><text x="518.0" y="89.5" text-anchor="middle" font-family="Inter,-apple-system,'Helvetica Neue',system-ui,sans-serif" font-size="12.5" font-weight="700" fill="#ffffff">What they did next</text><rect x="380" y="110" width="276" height="34" rx="4" fill="#d2ecd8"/><path d="M396.3 127 l4.3 4.8 l9.5 -10.9" fill="none" stroke="#106b2b" stroke-width="2.09" stroke-linecap="round" stroke-linejoin="round"/><text x="422" y="132" text-anchor="start" font-family="Inter,-apple-system,'Helvetica Neue',system-ui,sans-serif" font-size="12.5" font-weight="600" fill="#106b2b">Reached out to a student</text><path d="M334 160 Q353 146 372 127" fill="none" stroke="#1c3461" stroke-width="1.3" stroke-linecap="round" stroke-linejoin="round"/><path d="M372 127 l-1.7 7.3" fill="none" stroke="#1c3461" stroke-width="1.3" stroke-linecap="round" stroke-linejoin="round"/><path d="M372 127 l-7.3 1.9" fill="none" stroke="#1c3461" stroke-width="1.3" stroke-linecap="round" stroke-linejoin="round"/><rect x="380" y="154" width="276" height="34" rx="4" fill="#d2ecd8"/><path d="M396.3 171 l4.3 4.8 l9.5 -10.9" fill="none" stroke="#106b2b" stroke-width="2.09" stroke-linecap="round" stroke-linejoin="round"/><text x="422" y="176" text-anchor="start" font-family="Inter,-apple-system,'Helvetica Neue',system-ui,sans-serif" font-size="12.5" font-weight="600" fill="#106b2b">Changed the course</text><path d="M334 160 Q353 164 372 171" fill="none" stroke="#1c3461" stroke-width="1.3" stroke-linecap="round" stroke-linejoin="round"/><path d="M372 171 l-7.4 1.4" fill="none" stroke="#1c3461" stroke-width="1.3" stroke-linecap="round" stroke-linejoin="round"/><path d="M372 171 l-4.7 -5.8" fill="none" stroke="#1c3461" stroke-width="1.3" stroke-linecap="round" stroke-linejoin="round"/><rect x="380" y="198" width="276" height="34" rx="4" fill="#d2ecd8"/><path d="M396.3 215 l4.3 4.8 l9.5 -10.9" fill="none" stroke="#106b2b" stroke-width="2.09" stroke-linecap="round" stroke-linejoin="round"/><text x="422" y="220" text-anchor="start" font-family="Inter,-apple-system,'Helvetica Neue',system-ui,sans-serif" font-size="12.5" font-weight="600" fill="#106b2b">Re-timed the material</text><path d="M334 160 Q353 182 372 215" fill="none" stroke="#1c3461" stroke-width="1.3" stroke-linecap="round" stroke-linejoin="round"/><path d="M372 215 l-6.5 -3.7" fill="none" stroke="#1c3461" stroke-width="1.3" stroke-linecap="round" stroke-linejoin="round"/><path d="M372 215 l0.2 -7.5" fill="none" stroke="#1c3461" stroke-width="1.3" stroke-linecap="round" stroke-linejoin="round"/><rect x="42" y="264" width="636" height="30" rx="5" fill="#d7e2f2"/><text x="360.0" y="284" text-anchor="middle" font-family="Inter,-apple-system,'Helvetica Neue',system-ui,sans-serif" font-size="13" font-weight="700" fill="#1c3461">Not interest but intervention</text></g><path d="M42 366 H678" fill="none" stroke="#c9d2de" stroke-width="1.2" stroke-linecap="butt" stroke-linejoin="round"/><text x="360.0" y="401" text-anchor="middle" font-family="Fraunces,Georgia,'Times New Roman',serif" font-size="24" font-weight="600" fill="#6349ae">The profile only matters if someone acts on it.</text></svg>