<svg class="wb" viewBox="0 0 720 430" xmlns="http://www.w3.org/2000/svg" role="img" aria-label="Showing teachers machine-learned learner profiles prompted concrete interventions and course changes, not just interest."><defs><filter id="rf178" x="-8%" y="-8%" width="116%" height="116%"><feTurbulence type="fractalNoise" baseFrequency="0.018" numOctaves="3" seed="178" result="n"/><feDisplacementMap in="SourceGraphic" in2="n" scale="1.4" xChannelSelector="R" yChannelSelector="G"/></filter><marker id="ar178_232733" viewBox="0 0 12 12" refX="9" refY="6" markerWidth="6.5" markerHeight="6.5" orient="auto-start-reverse"><path d="M1.5 1.5 L10 6 L1.5 10.5" fill="none" stroke="#232733" stroke-width="2" stroke-linecap="round" stroke-linejoin="round"/></marker><marker id="ar178_6349ae" viewBox="0 0 12 12" refX="9" refY="6" markerWidth="6.5" markerHeight="6.5" orient="auto-start-reverse"><path d="M1.5 1.5 L10 6 L1.5 10.5" fill="none" stroke="#6349ae" stroke-width="2" stroke-linecap="round" stroke-linejoin="round"/></marker><marker id="ar178_225aa8" viewBox="0 0 12 12" refX="9" refY="6" markerWidth="6.5" markerHeight="6.5" orient="auto-start-reverse"><path d="M1.5 1.5 L10 6 L1.5 10.5" fill="none" stroke="#225aa8" stroke-width="2" stroke-linecap="round" stroke-linejoin="round"/></marker><marker id="ar178_0c675e" viewBox="0 0 12 12" refX="9" refY="6" markerWidth="6.5" markerHeight="6.5" orient="auto-start-reverse"><path d="M1.5 1.5 L10 6 L1.5 10.5" fill="none" stroke="#0c675e" stroke-width="2" stroke-linecap="round" stroke-linejoin="round"/></marker><marker id="ar178_166846" viewBox="0 0 12 12" refX="9" refY="6" markerWidth="6.5" markerHeight="6.5" orient="auto-start-reverse"><path d="M1.5 1.5 L10 6 L1.5 10.5" fill="none" stroke="#166846" stroke-width="2" stroke-linecap="round" stroke-linejoin="round"/></marker><marker id="ar178_785511" viewBox="0 0 12 12" refX="9" refY="6" markerWidth="6.5" markerHeight="6.5" orient="auto-start-reverse"><path d="M1.5 1.5 L10 6 L1.5 10.5" fill="none" stroke="#785511" stroke-width="2" stroke-linecap="round" stroke-linejoin="round"/></marker><marker id="ar178_a43245" viewBox="0 0 12 12" refX="9" refY="6" markerWidth="6.5" markerHeight="6.5" orient="auto-start-reverse"><path d="M1.5 1.5 L10 6 L1.5 10.5" fill="none" stroke="#a43245" stroke-width="2" stroke-linecap="round" stroke-linejoin="round"/></marker><marker id="ar178_535c6d" viewBox="0 0 12 12" refX="9" refY="6" markerWidth="6.5" markerHeight="6.5" orient="auto-start-reverse"><path d="M1.5 1.5 L10 6 L1.5 10.5" fill="none" stroke="#535c6d" stroke-width="2" stroke-linecap="round" stroke-linejoin="round"/></marker></defs><rect width="720" height="430" fill="#fdfdfb"/><circle cx="664" cy="44" r="96" fill="#6349ae" fill-opacity="0.05"/><circle cx="44" cy="386" r="78" fill="#6349ae" fill-opacity="0.04"/><g filter="url(#rf178)"><text x="360" y="38" text-anchor="middle" font-family="'Caveat','Bradley Hand',cursive" font-size="23" font-weight="600" fill="#232733">showing a teacher a learned profile</text><rect x="52" y="76" width="172" height="138" rx="13" fill="#232733" fill-opacity="0.13"/><rect x="48" y="72" width="172" height="138" rx="13" fill="#fdfdfb"/><rect x="48" y="72" width="172" height="138" rx="13" fill="none" stroke="#6349ae" stroke-width="2.6"/><path d="M72 190 L198 190" fill="none" stroke="#232733" stroke-width="2.2" stroke-linecap="round" stroke-linejoin="round"/><path d="M72 190 L72 92" fill="none" stroke="#232733" stroke-width="2.2" stroke-linecap="round" stroke-linejoin="round"/><clipPath id="h178_178_82_119"><rect x="82.0" y="119.48" width="24.705882352941178" height="70.52" rx="4"/></clipPath><g clip-path="url(#h178_178_82_119)" stroke="#6349ae" stroke-width="1.3" stroke-opacity="0.32" stroke-linecap="round"><path d="M28 191 L83 121" fill="none"/><path d="M31 189 L88 119" fill="none"/><path d="M38 190 L91 119" fill="none"/><path d="M44 189 L100 118" fill="none"/><path d="M51 191 L105 118" fill="none"/><path d="M57 191 L113 120" fill="none"/><path d="M64 189 L118 118" fill="none"/><path d="M71 190 L124 118" fill="none"/><path d="M78 189 L131 121" fill="none"/><path d="M85 189 L140 118" fill="none"/><path d="M90 191 L146 121" fill="none"/><path d="M96 189 L153 120" fill="none"/><path d="M104 190 L156 120" fill="none"/><path d="M109 190 L163 119" fill="none"/><path d="M116 191 L170 120" fill="none"/><path d="M120 190 L176 120" fill="none"/><path d="M128 190 L183 121" fill="none"/><path d="M131 190 L189 118" fill="none"/><path d="M138 190 L194 120" fill="none"/><path d="M144 189 L201 120" fill="none"/><path d="M153 190 L207 119" fill="none"/><path d="M160 190 L215 119" fill="none"/></g><rect x="82.0" y="119.5" width="24.7" height="70.5" rx="4" fill="none" stroke="#6349ae" stroke-width="2"/><clipPath id="h178_179_124_153"><rect x="124.0" y="153.88" width="24.705882352941178" height="36.12" rx="4"/></clipPath><g clip-path="url(#h178_179_124_153)" stroke="#6349ae" stroke-width="1.3" stroke-opacity="0.32" stroke-linecap="round"><path d="M97 189 L125 153" fill="none"/><path d="M101 191 L129 155" fill="none"/><path d="M108 191 L137 154" fill="none"/><path d="M113 191 L142 155" fill="none"/><path d="M121 191 L148 154" fill="none"/><path d="M125 190 L153 153" fill="none"/><path d="M131 189 L159 154" fill="none"/><path d="M137 189 L166 152" fill="none"/><path d="M145 190 L173 153" fill="none"/><path d="M150 189 L178 154" fill="none"/><path d="M157 191 L183 154" fill="none"/><path d="M162 190 L191 155" fill="none"/><path d="M168 189 L197 153" fill="none"/><path d="M174 189 L204 154" fill="none"/></g><rect x="124.0" y="153.9" width="24.7" height="36.1" rx="4" fill="none" stroke="#6349ae" stroke-width="2"/><clipPath id="h178_180_166_134"><rect x="166.0" y="134.96" width="24.705882352941178" height="55.04" rx="4"/></clipPath><g clip-path="url(#h178_180_166_134)" stroke="#6349ae" stroke-width="1.3" stroke-opacity="0.32" stroke-linecap="round"><path d="M124 191 L166 135" fill="none"/><path d="M128 189 L172 135" fill="none"/><path d="M135 190 L178 134" fill="none"/><path d="M140 189 L184 134" fill="none"/><path d="M147 191 L187 135" fill="none"/><path d="M153 189 L194 134" fill="none"/><path d="M158 189 L201 134" fill="none"/><path d="M165 191 L206 135" fill="none"/><path d="M171 190 L212 134" fill="none"/><path d="M176 189 L220 135" fill="none"/><path d="M183 189 L227 134" fill="none"/><path d="M189 189 L233 136" fill="none"/><path d="M196 189 L238 136" fill="none"/><path d="M201 190 L245 134" fill="none"/><path d="M207 191 L250 136" fill="none"/><path d="M212 191 L254 136" fill="none"/><path d="M219 191 L261 136" fill="none"/><path d="M223 189 L267 134" fill="none"/><path d="M231 190 L272 136" fill="none"/></g><rect x="166.0" y="135.0" width="24.7" height="55.0" rx="4" fill="none" stroke="#6349ae" stroke-width="2"/><text x="134" y="234" text-anchor="middle" font-family="'Caveat','Bradley Hand',cursive" font-size="20" font-weight="600" fill="#6349ae">profile</text><path d="M228.0 142.0 Q255.0 142.8 282.0 142.0" fill="none" stroke="#232733" stroke-width="2.6" stroke-linecap="round" stroke-linejoin="round" marker-end="url(#ar178_232733)"/><path d="M328.0 118.0 L328.0 141.0" fill="none" stroke="#232733" stroke-width="5.2" stroke-linecap="round" stroke-linejoin="round"/><clipPath id="tor178_184_328_110"><path d="M300.0 182.0 C300.0 156.0 313.0 135.0 328.0 135.0 C343.0 135.0 356.0 156.0 356.0 182.0 Z"/></clipPath><path d="M300.0 182.0 C300.0 156.0 313.0 135.0 328.0 135.0 C343.0 135.0 356.0 156.0 356.0 182.0 Z" fill="#fdfdfb"/><g clip-path="url(#tor178_184_328_110)" stroke="#232733" stroke-width="1.3" stroke-opacity=".2" stroke-linecap="round"><path d="M297 135 L359 127" fill="none"/><path d="M297 142 L359 134" fill="none"/><path d="M297 148 L359 140" fill="none"/><path d="M297 157 L359 147" fill="none"/><path d="M297 163 L359 156" fill="none"/><path d="M297 170 L359 163" fill="none"/><path d="M297 177 L359 170" fill="none"/></g><path d="M300.0 182.0 C300.0 156.0 313.0 135.0 328.0 135.0 C343.0 135.0 356.0 156.0 356.0 182.0 Z" fill="none" stroke="#232733" stroke-width="2.5" stroke-linejoin="round"/><circle cx="328" cy="110" r="15.0" fill="#fdfdfb" stroke="#232733" stroke-width="2.5"/><path d="M310.7 115.0 A18.0 18.0 0 1 1 345.3 115.0 L342.4 114.1 A15.0 15.0 0 1 0 313.6 114.1 Z" fill="#232733" fill-opacity=".24" stroke="#232733" stroke-width="2.1" stroke-linejoin="round"/><circle cx="321.2" cy="110.5" r="1.80" fill="#232733"/><circle cx="334.8" cy="110.5" r="1.80" fill="#232733"/><path d="M323.0 116.5 q5.0 4.6 10.0 0" fill="none" stroke="#232733" stroke-width="1.8" stroke-linecap="round" stroke-linejoin="round"/><path d="M372 146 Q399 126 426 94" fill="none" stroke="#232733" stroke-width="2.2" stroke-linecap="round" stroke-linejoin="round" marker-end="url(#ar178_232733)"/><path d="M372 146 Q399 148 426 150" fill="none" stroke="#232733" stroke-width="2.2" stroke-linecap="round" stroke-linejoin="round" marker-end="url(#ar178_232733)"/><path d="M372 146 Q399 169 426 206" fill="none" stroke="#232733" stroke-width="2.2" stroke-linecap="round" stroke-linejoin="round" marker-end="url(#ar178_232733)"/><rect x="438" y="78" width="238" height="46" rx="10" fill="#232733" fill-opacity="0.13"/><rect x="434" y="74" width="238" height="46" rx="10" fill="#fdfdfb"/><clipPath id="h178_178_434_74"><rect x="434" y="74" width="238" height="46" rx="10"/></clipPath><g clip-path="url(#h178_178_434_74)" stroke="#166846" stroke-width="1.3" stroke-opacity="0.15" stroke-linecap="round"><path d="M399 121 L435 75" fill="none"/><path d="M405 119 L443 73" fill="none"/><path d="M415 120 L449 74" fill="none"/><path d="M424 119 L461 73" fill="none"/><path d="M434 121 L469 73" fill="none"/><path d="M443 121 L480 74" fill="none"/><path d="M453 119 L488 73" fill="none"/><path d="M463 120 L497 73" fill="none"/><path d="M473 119 L507 75" fill="none"/><path d="M484 119 L519 73" fill="none"/><path d="M491 121 L528 75" fill="none"/><path d="M500 119 L538 75" fill="none"/><path d="M511 120 L544 74" fill="none"/><path d="M520 120 L554 73" fill="none"/><path d="M529 121 L564 75" fill="none"/><path d="M536 120 L573 74" fill="none"/><path d="M547 120 L583 75" fill="none"/><path d="M553 120 L592 73" fill="none"/><path d="M563 120 L600 74" fill="none"/><path d="M573 119 L610 75" fill="none"/><path d="M584 120 L619 73" fill="none"/><path d="M594 120 L630 73" fill="none"/><path d="M603 120 L639 73" fill="none"/><path d="M611 121 L648 73" fill="none"/><path d="M621 121 L657 74" fill="none"/><path d="M630 120 L666 73" fill="none"/><path d="M639 121 L675 73" fill="none"/><path d="M647 120 L686 74" fill="none"/><path d="M658 121 L695 75" fill="none"/><path d="M668 121 L704 74" fill="none"/><path d="M677 120 L714 73" fill="none"/><path d="M686 121 L723 73" fill="none"/><path d="M694 121 L732 75" fill="none"/><path d="M705 119 L740 75" fill="none"/></g><rect x="434" y="74" width="238" height="46" rx="10" fill="none" stroke="#166846" stroke-width="2.3"/><path d="M452 98 l5 6 l10 -13" fill="none" stroke="#166846" stroke-width="3.4" stroke-linecap="round" stroke-linejoin="round"/><text x="482" y="105" text-anchor="start" font-family="'Caveat','Bradley Hand',cursive" font-size="18" font-weight="600" fill="#166846">reach out to a student</text><rect x="438" y="136" width="238" height="46" rx="10" fill="#232733" fill-opacity="0.13"/><rect x="434" y="132" width="238" height="46" rx="10" fill="#fdfdfb"/><clipPath id="st178_179_434_132"><rect x="434" y="132" width="238" height="46" rx="10"/></clipPath><g clip-path="url(#st178_179_434_132)" fill="#166846" fill-opacity="0.15"><circle cx="547" cy="139" r="1.0"/><circle cx="537" cy="158" r="0.9"/><circle cx="533" cy="133" r="1.4"/><circle cx="486" cy="158" r="1.5"/><circle cx="481" cy="171" r="1.6"/><circle cx="506" cy="154" r="1.1"/><circle cx="621" cy="146" r="1.4"/><circle cx="619" cy="138" r="0.9"/><circle cx="555" cy="156" r="1.2"/><circle cx="440" cy="146" r="1.5"/><circle cx="651" cy="160" r="1.5"/><circle cx="494" cy="169" r="1.2"/><circle cx="549" cy="177" r="1.2"/><circle cx="540" cy="173" r="1.5"/><circle cx="509" cy="136" r="1.3"/><circle cx="440" cy="161" r="1.4"/><circle cx="442" cy="157" r="1.1"/><circle cx="600" cy="170" r="1.1"/><circle cx="635" cy="167" r="1.0"/><circle cx="547" cy="148" r="1.0"/><circle cx="447" cy="163" r="1.4"/><circle cx="553" cy="176" r="1.6"/><circle cx="480" cy="174" r="1.4"/><circle cx="435" cy="178" r="1.2"/><circle cx="509" cy="153" r="1.3"/><circle cx="478" cy="177" r="1.0"/><circle cx="637" cy="174" r="1.0"/><circle cx="530" cy="158" r="1.4"/><circle cx="568" cy="149" r="1.1"/><circle cx="622" cy="156" r="1.4"/><circle cx="577" cy="139" r="1.1"/><circle cx="463" cy="148" r="1.4"/><circle cx="621" cy="152" r="1.5"/><circle cx="539" cy="165" r="1.4"/><circle cx="582" cy="159" r="1.5"/><circle cx="469" cy="151" r="1.4"/><circle cx="515" cy="151" r="1.2"/><circle cx="558" cy="138" r="1.0"/><circle cx="456" cy="164" r="1.3"/><circle cx="441" cy="147" r="1.4"/><circle cx="566" cy="169" r="1.4"/><circle cx="630" cy="173" r="1.6"/><circle cx="486" cy="151" r="1.2"/><circle cx="573" cy="142" r="1.0"/><circle cx="566" cy="172" r="1.3"/><circle cx="470" cy="167" r="1.4"/><circle cx="461" cy="172" r="1.2"/><circle cx="528" cy="154" r="1.6"/><circle cx="539" cy="156" r="1.0"/><circle cx="527" cy="154" r="1.2"/><circle cx="657" cy="156" r="1.3"/><circle cx="614" cy="153" r="1.3"/><circle cx="484" cy="161" r="1.0"/><circle cx="660" cy="173" r="1.1"/><circle cx="569" cy="156" r="1.6"/><circle cx="468" cy="145" r="1.1"/><circle cx="645" cy="154" r="1.2"/><circle cx="441" cy="152" r="1.4"/><circle cx="597" cy="136" r="1.6"/><circle cx="587" cy="147" r="1.5"/><circle cx="596" cy="158" r="0.9"/><circle cx="633" cy="154" r="1.5"/><circle cx="606" cy="148" r="1.0"/><circle cx="524" cy="176" r="1.1"/><circle cx="570" cy="144" r="1.0"/><circle cx="502" cy="163" r="0.9"/><circle cx="514" cy="135" r="1.0"/><circle cx="538" cy="138" r="1.4"/><circle cx="462" cy="161" r="1.3"/><circle cx="535" cy="167" r="1.3"/><circle cx="510" cy="162" r="1.5"/><circle cx="655" cy="156" r="1.1"/></g><rect x="434" y="132" width="238" height="46" rx="10" fill="none" stroke="#166846" stroke-width="2.3"/><path d="M452 156 l5 6 l10 -13" fill="none" stroke="#166846" stroke-width="3.4" stroke-linecap="round" stroke-linejoin="round"/><text x="482" y="163" text-anchor="start" font-family="'Caveat','Bradley Hand',cursive" font-size="18" font-weight="600" fill="#166846">change the course</text><rect x="438" y="194" width="238" height="46" rx="10" fill="#232733" fill-opacity="0.13"/><rect x="434" y="190" width="238" height="46" rx="10" fill="#fdfdfb"/><clipPath id="h178_180_434_190"><rect x="434" y="190" width="238" height="46" rx="10"/></clipPath><g clip-path="url(#h178_180_434_190)" stroke="#166846" stroke-width="1.3" stroke-opacity="0.12299999999999998" stroke-linecap="round"><path d="M399 237 L434 190" fill="none"/><path d="M411 235 L447 190" fill="none"/><path d="M425 236 L461 189" fill="none"/><path d="M438 235 L474 189" fill="none"/><path d="M452 237 L485 190" fill="none"/><path d="M465 235 L499 189" fill="none"/><path d="M478 235 L514 189" fill="none"/><path d="M492 237 L527 190" fill="none"/><path d="M506 236 L540 189" fill="none"/><path d="M518 235 L555 190" fill="none"/><path d="M533 235 L570 189" fill="none"/><path d="M547 235 L583 191" fill="none"/><path d="M562 235 L596 191" fill="none"/><path d="M574 236 L611 189" fill="none"/><path d="M587 237 L623 191" fill="none"/><path d="M599 237 L635 191" fill="none"/><path d="M614 237 L649 191" fill="none"/><path d="M625 235 L662 189" fill="none"/><path d="M641 236 L675 191" fill="none"/><path d="M652 235 L688 191" fill="none"/><path d="M666 236 L701 191" fill="none"/><path d="M680 237 L716 191" fill="none"/><path d="M691 237 L728 191" fill="none"/><path d="M707 235 L742 191" fill="none"/><path d="M398 235 L362 190" fill="none"/><path d="M411 237 L376 190" fill="none"/><path d="M425 235 L390 190" fill="none"/><path d="M439 235 L401 190" fill="none"/><path d="M453 236 L416 190" fill="none"/><path d="M465 236 L430 190" fill="none"/><path d="M481 236 L443 189" fill="none"/><path d="M495 236 L459 191" fill="none"/><path d="M508 236 L472 190" fill="none"/><path d="M520 235 L486 189" fill="none"/><path d="M533 237 L498 191" fill="none"/><path d="M547 236 L513 189" fill="none"/><path d="M561 236 L523 191" fill="none"/><path d="M574 235 L538 190" fill="none"/><path d="M590 236 L552 189" fill="none"/><path d="M603 237 L568 191" fill="none"/><path d="M615 235 L579 190" fill="none"/><path d="M631 237 L594 191" fill="none"/><path d="M641 236 L606 190" fill="none"/><path d="M656 235 L621 190" fill="none"/><path d="M670 237 L633 191" fill="none"/><path d="M684 236 L647 191" fill="none"/><path d="M699 237 L663 190" fill="none"/></g><rect x="434" y="190" width="238" height="46" rx="10" fill="none" stroke="#166846" stroke-width="2.3"/><path d="M452 214 l5 6 l10 -13" fill="none" stroke="#166846" stroke-width="3.4" stroke-linecap="round" stroke-linejoin="round"/><text x="482" y="221" text-anchor="start" font-family="'Caveat','Bradley Hand',cursive" font-size="18" font-weight="600" fill="#166846">re-time the material</text><rect x="180.0" y="270" width="360" height="46" rx="14" fill="#166846" fill-opacity="0.1"/><text x="360" y="302" text-anchor="middle" font-family="'Caveat','Bradley Hand',cursive" font-size="23" font-weight="600" fill="#166846">not interest — intervention</text><text x="360" y="386" text-anchor="middle" font-family="'Caveat','Bradley Hand',cursive" font-size="19" font-weight="600" fill="#535c6d">the profile only matters if someone acts on it</text></g></svg>