<svg class="wb" viewBox="0 0 720 430" xmlns="http://www.w3.org/2000/svg" role="img" aria-label="Showing teachers machine-learned learner profiles prompted concrete interventions and course changes, not just interest."><rect width="720" height="430" fill="#ffffff"/><text x="56" y="26" text-anchor="start" font-family="Inter,-apple-system,'Helvetica Neue',system-ui,sans-serif" font-size="11" font-weight="700" fill="#535c6d" letter-spacing="1.6">SHOWING A TEACHER A LEARNED PROFILE</text><rect x="56" y="56" width="164" height="150" rx="3" fill="#6349ae" fill-opacity="0.06"/><rect x="56" y="56" width="164" height="150" rx="3" fill="none" stroke="#e3e6ec" stroke-width="1"/><rect x="90" y="101.64" width="26" height="80.36" rx="0" fill="#6349ae" fill-opacity="0.18"/><path d="M90 101.64 H116" fill="none" stroke="#6349ae" stroke-width="2.4" stroke-linecap="butt" stroke-linejoin="round"/><rect x="134" y="140.84" width="26" height="41.16" rx="0" fill="#6349ae" fill-opacity="0.18"/><path d="M134 140.84 H160" fill="none" stroke="#6349ae" stroke-width="2.4" stroke-linecap="butt" stroke-linejoin="round"/><rect x="178" y="119.28" width="26" height="62.72" rx="0" fill="#6349ae" fill-opacity="0.18"/><path d="M178 119.28 H204" fill="none" stroke="#6349ae" stroke-width="2.4" stroke-linecap="butt" stroke-linejoin="round"/><path d="M78 182 H198" fill="none" stroke="#1a1d24" stroke-width="1.2" stroke-linecap="butt" stroke-linejoin="round"/><text x="138" y="228" text-anchor="middle" font-family="Inter,-apple-system,'Helvetica Neue',system-ui,sans-serif" font-size="11" font-weight="700" fill="#6349ae" letter-spacing="1.6">PROFILE</text><path d="M232 131 L268 131" fill="none" stroke="#1a1d24" stroke-width="1.5" stroke-linecap="round" stroke-linejoin="round"/><path d="M268 131 l-6.9 4.0" fill="none" stroke="#1a1d24" stroke-width="1.5" stroke-linecap="round" stroke-linejoin="round"/><path d="M268 131 l-6.9 -4.0" fill="none" stroke="#1a1d24" stroke-width="1.5" stroke-linecap="round" stroke-linejoin="round"/><path d="M284.6 156.5 a29.4 29.4 0 0 1 58.8 0" fill="#ffffff" stroke="#1a1d24" stroke-width="1.4" stroke-linecap="butt" stroke-linejoin="round"/><circle cx="314" cy="112" r="20.16" fill="#ffffff" stroke="#1a1d24" stroke-width="1.4"/><circle cx="307.7" cy="109.48" r="1.68" fill="#1a1d24"/><circle cx="320.3" cy="109.48" r="1.68" fill="#1a1d24"/><path d="M309.0 118.7 q5.0 4.6 10.1 0" fill="none" stroke="#1a1d24" stroke-width="1.344" stroke-linecap="round" stroke-linejoin="round"/><rect x="420" y="56" width="244" height="44" rx="3" fill="#106b2b" fill-opacity="0.08"/><path d="M421.5 56 V100" fill="none" stroke="#106b2b" stroke-width="3" stroke-linecap="butt" stroke-linejoin="round"/><path d="M438.1 79 l4.7 5.1 l10.2 -11.9" fill="none" stroke="#106b2b" stroke-width="2.04" stroke-linecap="round" stroke-linejoin="round"/><text x="466" y="85" text-anchor="start" font-family="Fraunces,Georgia,'Times New Roman',serif" font-size="17" font-weight="500" fill="#106b2b">reach out to a student</text><path d="M362 131 Q387 110 412 78" fill="none" stroke="#1a1d24" stroke-width="1.2" stroke-linecap="round" stroke-linejoin="round"/><path d="M412 78 l-1.1 7.9" fill="none" stroke="#1a1d24" stroke-width="1.2" stroke-linecap="round" stroke-linejoin="round"/><path d="M412 78 l-7.4 3.0" fill="none" stroke="#1a1d24" stroke-width="1.2" stroke-linecap="round" stroke-linejoin="round"/><rect x="420" y="112" width="244" height="44" rx="3" fill="#106b2b" fill-opacity="0.08"/><path d="M421.5 112 V156" fill="none" stroke="#106b2b" stroke-width="3" stroke-linecap="butt" stroke-linejoin="round"/><path d="M438.1 135 l4.7 5.1 l10.2 -11.9" fill="none" stroke="#106b2b" stroke-width="2.04" stroke-linecap="round" stroke-linejoin="round"/><text x="466" y="141" text-anchor="start" font-family="Fraunces,Georgia,'Times New Roman',serif" font-size="17" font-weight="500" fill="#106b2b">change the course</text><path d="M362 131 L412 134" fill="none" stroke="#1a1d24" stroke-width="1.2" stroke-linecap="round" stroke-linejoin="round"/><path d="M412 134 l-7.2 3.6" fill="none" stroke="#1a1d24" stroke-width="1.2" stroke-linecap="round" stroke-linejoin="round"/><path d="M412 134 l-6.7 -4.4" fill="none" stroke="#1a1d24" stroke-width="1.2" stroke-linecap="round" stroke-linejoin="round"/><rect x="420" y="168" width="244" height="44" rx="3" fill="#106b2b" fill-opacity="0.08"/><path d="M421.5 168 V212" fill="none" stroke="#106b2b" stroke-width="3" stroke-linecap="butt" stroke-linejoin="round"/><path d="M438.1 191 l4.7 5.1 l10.2 -11.9" fill="none" stroke="#106b2b" stroke-width="2.04" stroke-linecap="round" stroke-linejoin="round"/><text x="466" y="197" text-anchor="start" font-family="Fraunces,Georgia,'Times New Roman',serif" font-size="17" font-weight="500" fill="#106b2b">re-time the material</text><path d="M362 131 Q387 155 412 190" fill="none" stroke="#1a1d24" stroke-width="1.2" stroke-linecap="round" stroke-linejoin="round"/><path d="M412 190 l-7.3 -3.3" fill="none" stroke="#1a1d24" stroke-width="1.2" stroke-linecap="round" stroke-linejoin="round"/><path d="M412 190 l-0.8 -8.0" fill="none" stroke="#1a1d24" stroke-width="1.2" stroke-linecap="round" stroke-linejoin="round"/><text x="360.0" y="262" text-anchor="middle" font-family="Inter,-apple-system,'Helvetica Neue',system-ui,sans-serif" font-size="11" font-weight="700" fill="#106b2b" letter-spacing="1.6">NOT INTEREST BUT INTERVENTION</text><path d="M56 371 H664" fill="none" stroke="#e3e6ec" stroke-width="1" stroke-linecap="butt" stroke-linejoin="round"/><text x="360.0" y="404" text-anchor="middle" font-family="Fraunces,Georgia,'Times New Roman',serif" font-size="23" font-weight="600" fill="#6349ae">The profile only matters if someone acts on it.</text></svg>